<?xml version="1.0" encoding="UTF-8" standalone="no"?>
<!-- Created with Inkscape (http://www.inkscape.org/) -->

<svg
   xmlns:dc="http://purl.org/dc/elements/1.1/"
   xmlns:cc="http://creativecommons.org/ns#"
   xmlns:rdf="http://www.w3.org/1999/02/22-rdf-syntax-ns#"
   xmlns:svg="http://www.w3.org/2000/svg"
   xmlns="http://www.w3.org/2000/svg"
   xmlns:sodipodi="http://sodipodi.sourceforge.net/DTD/sodipodi-0.dtd"
   xmlns:inkscape="http://www.inkscape.org/namespaces/inkscape"
   width="28.540396mm"
   height="36.682156mm"
   viewBox="0 0 28.540396 36.682156"
   version="1.1"
   id="svg22781"
   inkscape:version="0.92.4 5da689c313, 2019-01-14"
   sodipodi:docname="11.svg">
  <defs
     id="defs22775" />
  <sodipodi:namedview
     id="base"
     pagecolor="#ffffff"
     bordercolor="#666666"
     borderopacity="1.0"
     inkscape:pageopacity="0.0"
     inkscape:pageshadow="2"
     inkscape:zoom="0.35"
     inkscape:cx="-286.46735"
     inkscape:cy="245.90326"
     inkscape:document-units="mm"
     inkscape:current-layer="layer1"
     showgrid="false"
     inkscape:window-width="1366"
     inkscape:window-height="704"
     inkscape:window-x="0"
     inkscape:window-y="27"
     inkscape:window-maximized="1" />
  <metadata
     id="metadata22778">
    <rdf:RDF>
      <cc:Work
         rdf:about="">
        <dc:format>image/svg+xml</dc:format>
        <dc:type
           rdf:resource="http://purl.org/dc/dcmitype/StillImage" />
        <dc:title></dc:title>
      </cc:Work>
    </rdf:RDF>
  </metadata>
  <g
     inkscape:label="レイヤー 1"
     inkscape:groupmode="layer"
     id="layer1"
     transform="translate(-150.2558,-177.21308)">
    <g
       transform="matrix(0.01,0,0,0.01,-312.19381,10.475238)"
       id="g8236"
       class="com.sun.star.drawing.ClosedBezierShape">
      <g
         id="id796">
        <rect
           style="fill:none;stroke:none"
           id="rect8229"
           height="2643"
           width="2708"
           y="17699"
           x="46245"
           class="BoundingBox" />
        <path
           style="fill:#cceffc;stroke:none"
           inkscape:connector-curvature="0"
           id="path8231"
           d="m 46899,17802 82,40 c 0,0 100,34 10,200 -91,167 -672,1230 -672,1230 0,0 -114,211 2,352 0,0 474,605 1378,692 0,0 166,-4 310,-242 0,0 750,-1457 892,-1445 0,0 243,-64 -745,-597 0,0 -377,-241 -872,-308 0,0 -302,7 -385,78 z" />
        <path
           style="fill:none;stroke:#b2b1b1;stroke-width:48;stroke-linejoin:miter"
           inkscape:connector-curvature="0"
           id="path8233"
           d="m 46899,17802 82,40 c 0,0 100,34 10,200 -91,167 -672,1230 -672,1230 0,0 -114,211 2,352 0,0 474,605 1378,692 0,0 166,-4 310,-242 0,0 750,-1457 892,-1445 0,0 243,-64 -745,-597 0,0 -377,-241 -872,-308 0,0 -302,7 -385,78 z" />
      </g>
    </g>
    <g
       transform="matrix(0.01,0,0,0.01,-312.19381,10.475238)"
       id="g8243"
       class="com.sun.star.drawing.OpenBezierShape">
      <g
         id="id797">
        <rect
           style="fill:none;stroke:none"
           id="rect8238"
           height="882"
           width="2053"
           y="17774"
           x="46879"
           class="BoundingBox" />
        <path
           style="fill:none;stroke:#b2b1b1;stroke-width:41;stroke-linecap:round;stroke-linejoin:miter"
           inkscape:connector-curvature="0"
           id="path8240"
           d="m 48910,18630 c 0,0 -454,105 -1788,-806 0,0 -53,-57 -222,-11" />
      </g>
    </g>
    <g
       transform="matrix(0.01,0,0,0.01,-312.19381,10.475238)"
       id="g8248"
       class="com.sun.star.drawing.PolyPolygonShape">
      <g
         id="id798">
        <rect
           style="fill:none;stroke:none"
           id="rect8245"
           height="138"
           width="284"
           y="18599"
           x="47770"
           class="BoundingBox" />
      </g>
    </g>
    <g
       transform="matrix(0.01,0,0,0.01,-312.19381,10.475238)"
       id="g8255"
       class="com.sun.star.drawing.LineShape">
      <g
         id="id799">
        <rect
           style="fill:none;stroke:none"
           id="rect8250"
           height="172"
           width="300"
           y="18582"
           x="47762"
           class="BoundingBox" />
        <path
           style="fill:none;stroke:#b2b1b1;stroke-width:36;stroke-linejoin:miter"
           inkscape:connector-curvature="0"
           id="path8252"
           d="m 47770,18599 283,137" />
      </g>
    </g>
    <g
       transform="matrix(0.01,0,0,0.01,-312.19381,10.475238)"
       id="g8260"
       class="com.sun.star.drawing.PolyPolygonShape">
      <g
         id="id800">
        <rect
           style="fill:none;stroke:none"
           id="rect8257"
           height="1194"
           width="652"
           y="18599"
           x="47120"
           class="BoundingBox" />
      </g>
    </g>
    <g
       transform="matrix(0.01,0,0,0.01,-312.19381,10.475238)"
       id="g8267"
       class="com.sun.star.drawing.LineShape">
      <g
         id="id801">
        <rect
           style="fill:none;stroke:none"
           id="rect8262"
           height="1212"
           width="684"
           y="18590"
           x="47104"
           class="BoundingBox" />
        <path
           style="fill:none;stroke:#b2b1b1;stroke-width:35;stroke-linejoin:miter"
           inkscape:connector-curvature="0"
           id="path8264"
           d="m 47771,18599 -651,1193" />
      </g>
    </g>
    <g
       transform="matrix(0.01,0,0,0.01,-312.19381,10.475238)"
       id="g8272"
       class="com.sun.star.drawing.PolyPolygonShape">
      <g
         id="id802">
        <rect
           style="fill:none;stroke:none"
           id="rect8269"
           height="127"
           width="261"
           y="19791"
           x="47120"
           class="BoundingBox" />
      </g>
    </g>
    <g
       transform="matrix(0.01,0,0,0.01,-312.19381,10.475238)"
       id="g8279"
       class="com.sun.star.drawing.LineShape">
      <g
         id="id803">
        <rect
           style="fill:none;stroke:none"
           id="rect8274"
           height="161"
           width="277"
           y="19774"
           x="47112"
           class="BoundingBox" />
        <path
           style="fill:none;stroke:#b2b1b1;stroke-width:36;stroke-linejoin:miter"
           inkscape:connector-curvature="0"
           id="path8276"
           d="m 47120,19791 260,126" />
      </g>
    </g>
    <g
       transform="matrix(0.01,0,0,0.01,-312.19381,10.475238)"
       id="g8284"
       class="com.sun.star.drawing.PolyPolygonShape">
      <g
         id="id804">
        <rect
           style="fill:none;stroke:none"
           id="rect8281"
           height="127"
           width="261"
           y="18876"
           x="47619"
           class="BoundingBox" />
      </g>
    </g>
    <g
       transform="matrix(0.01,0,0,0.01,-312.19381,10.475238)"
       id="g8291"
       class="com.sun.star.drawing.LineShape">
      <g
         id="id805">
        <rect
           style="fill:none;stroke:none"
           id="rect8286"
           height="161"
           width="277"
           y="18859"
           x="47611"
           class="BoundingBox" />
        <path
           style="fill:none;stroke:#b2b1b1;stroke-width:36;stroke-linejoin:miter"
           inkscape:connector-curvature="0"
           id="path8288"
           d="m 47619,18876 260,126" />
      </g>
    </g>
    <g
       transform="matrix(0.01,0,0,0.01,-312.19381,10.475238)"
       id="g8296"
       class="com.sun.star.drawing.PolyPolygonShape">
      <g
         id="id806">
        <rect
           style="fill:none;stroke:none"
           id="rect8293"
           height="121"
           width="249"
           y="19197"
           x="47444"
           class="BoundingBox" />
      </g>
    </g>
    <g
       transform="matrix(0.01,0,0,0.01,-312.19381,10.475238)"
       id="g8303"
       class="com.sun.star.drawing.LineShape">
      <g
         id="id807">
        <rect
           style="fill:none;stroke:none"
           id="rect8298"
           height="155"
           width="265"
           y="19180"
           x="47436"
           class="BoundingBox" />
        <path
           style="fill:none;stroke:#b2b1b1;stroke-width:36;stroke-linejoin:miter"
           inkscape:connector-curvature="0"
           id="path8300"
           d="m 47444,19197 248,120" />
      </g>
    </g>
    <g
       transform="matrix(0.01,0,0,0.01,-312.19381,10.475238)"
       id="g8308"
       class="com.sun.star.drawing.PolyPolygonShape">
      <g
         id="id808">
        <rect
           style="fill:none;stroke:none"
           id="rect8305"
           height="127"
           width="261"
           y="19485"
           x="47287"
           class="BoundingBox" />
      </g>
    </g>
    <g
       transform="matrix(0.01,0,0,0.01,-312.19381,10.475238)"
       id="g8315"
       class="com.sun.star.drawing.LineShape">
      <g
         id="id809">
        <rect
           style="fill:none;stroke:none"
           id="rect8310"
           height="161"
           width="277"
           y="19468"
           x="47279"
           class="BoundingBox" />
        <path
           style="fill:none;stroke:#b2b1b1;stroke-width:36;stroke-linejoin:miter"
           inkscape:connector-curvature="0"
           id="path8312"
           d="m 47287,19485 260,126" />
      </g>
    </g>
    <g
       transform="matrix(0.01,0,0,0.01,-312.19381,10.475238)"
       id="g8320"
       class="com.sun.star.drawing.PolyPolygonShape">
      <g
         id="id810">
        <rect
           style="fill:none;stroke:none"
           id="rect8317"
           height="66"
           width="136"
           y="18728"
           x="47699"
           class="BoundingBox" />
      </g>
    </g>
    <g
       transform="matrix(0.01,0,0,0.01,-312.19381,10.475238)"
       id="g8327"
       class="com.sun.star.drawing.LineShape">
      <g
         id="id811">
        <rect
           style="fill:none;stroke:none"
           id="rect8322"
           height="100"
           width="152"
           y="18711"
           x="47691"
           class="BoundingBox" />
        <path
           style="fill:none;stroke:#b2b1b1;stroke-width:36;stroke-linejoin:miter"
           inkscape:connector-curvature="0"
           id="path8324"
           d="m 47699,18728 135,65" />
      </g>
    </g>
    <g
       transform="matrix(0.01,0,0,0.01,-312.19381,10.475238)"
       id="g8332"
       class="com.sun.star.drawing.PolyPolygonShape">
      <g
         id="id812">
        <rect
           style="fill:none;stroke:none"
           id="rect8329"
           height="66"
           width="136"
           y="19038"
           x="47530"
           class="BoundingBox" />
      </g>
    </g>
    <g
       transform="matrix(0.01,0,0,0.01,-312.19381,10.475238)"
       id="g8339"
       class="com.sun.star.drawing.LineShape">
      <g
         id="id813">
        <rect
           style="fill:none;stroke:none"
           id="rect8334"
           height="100"
           width="152"
           y="19021"
           x="47522"
           class="BoundingBox" />
        <path
           style="fill:none;stroke:#b2b1b1;stroke-width:36;stroke-linejoin:miter"
           inkscape:connector-curvature="0"
           id="path8336"
           d="m 47530,19038 135,65" />
      </g>
    </g>
    <g
       transform="matrix(0.01,0,0,0.01,-312.19381,10.475238)"
       id="g8344"
       class="com.sun.star.drawing.PolyPolygonShape">
      <g
         id="id814">
        <rect
           style="fill:none;stroke:none"
           id="rect8341"
           height="70"
           width="143"
           y="19341"
           x="47365"
           class="BoundingBox" />
      </g>
    </g>
    <g
       transform="matrix(0.01,0,0,0.01,-312.19381,10.475238)"
       id="g8351"
       class="com.sun.star.drawing.LineShape">
      <g
         id="id815">
        <rect
           style="fill:none;stroke:none"
           id="rect8346"
           height="104"
           width="159"
           y="19324"
           x="47357"
           class="BoundingBox" />
        <path
           style="fill:none;stroke:#b2b1b1;stroke-width:36;stroke-linejoin:miter"
           inkscape:connector-curvature="0"
           id="path8348"
           d="m 47365,19341 142,69" />
      </g>
    </g>
    <g
       transform="matrix(0.01,0,0,0.01,-312.19381,10.475238)"
       id="g8356"
       class="com.sun.star.drawing.PolyPolygonShape">
      <g
         id="id816">
        <rect
           style="fill:none;stroke:none"
           id="rect8353"
           height="67"
           width="136"
           y="19643"
           x="47200"
           class="BoundingBox" />
      </g>
    </g>
    <g
       transform="matrix(0.01,0,0,0.01,-312.19381,10.475238)"
       id="g8363"
       class="com.sun.star.drawing.LineShape">
      <g
         id="id817">
        <rect
           style="fill:none;stroke:none"
           id="rect8358"
           height="101"
           width="152"
           y="19626"
           x="47192"
           class="BoundingBox" />
        <path
           style="fill:none;stroke:#b2b1b1;stroke-width:36;stroke-linejoin:miter"
           inkscape:connector-curvature="0"
           id="path8360"
           d="m 47200,19643 135,66" />
      </g>
    </g>
    <g
       transform="matrix(0.01,0,0,0.01,-312.19381,10.475238)"
       id="g8370"
       class="com.sun.star.drawing.ClosedBezierShape">
      <g
         id="id818">
        <rect
           style="fill:none;stroke:none"
           id="rect8365"
           height="689"
           width="651"
           y="17873"
           x="48436"
           class="BoundingBox" />
        <path
           style="fill:#bfbebe;stroke:none"
           inkscape:connector-curvature="0"
           id="path8367"
           d="m 48436,18528 534,-655 c 0,0 20,73 116,66 l -528,622 z" />
      </g>
    </g>
    <g
       transform="matrix(0.01,0,0,0.01,-312.19381,10.475238)"
       id="g8377"
       class="com.sun.star.drawing.OpenBezierShape">
      <g
         id="id819">
        <rect
           style="fill:none;stroke:none"
           id="rect8372"
           height="713"
           width="675"
           y="17861"
           x="48424"
           class="BoundingBox" />
        <path
           style="fill:none;stroke:#b2b1b1;stroke-width:24;stroke-linecap:round;stroke-linejoin:round"
           inkscape:connector-curvature="0"
           id="path8374"
           d="m 48436,18528 534,-655 c 0,0 20,73 116,66 l -528,622" />
      </g>
    </g>
    <g
       transform="matrix(0.01,0,0,0.01,-312.19381,10.475238)"
       id="g8384"
       class="com.sun.star.drawing.ClosedBezierShape">
      <g
         id="id820">
        <rect
           style="fill:none;stroke:none"
           id="rect8379"
           height="63"
           width="113"
           y="17869"
           x="48973"
           class="BoundingBox" />
        <path
           style="fill:#bfbebe;stroke:none"
           inkscape:connector-curvature="0"
           id="path8381"
           d="m 48974,17869 c -1,0 105,-8 110,61 z" />
      </g>
    </g>
    <g
       transform="matrix(0.01,0,0,0.01,-312.19381,10.475238)"
       id="g8391"
       class="com.sun.star.drawing.OpenBezierShape">
      <g
         id="id821">
        <rect
           style="fill:none;stroke:none"
           id="rect8386"
           height="87"
           width="137"
           y="17857"
           x="48961"
           class="BoundingBox" />
        <path
           style="fill:none;stroke:#b2b1b1;stroke-width:24;stroke-linecap:round;stroke-linejoin:round"
           inkscape:connector-curvature="0"
           id="path8388"
           d="m 48974,17869 c -1,0 105,-8 110,61" />
      </g>
    </g>
    <g
       transform="matrix(0.01,0,0,0.01,-312.19381,10.475238)"
       id="g8398"
       class="com.sun.star.drawing.OpenBezierShape">
      <g
         id="id822">
        <rect
           style="fill:none;stroke:none"
           id="rect8393"
           height="663"
           width="310"
           y="16912"
           x="47593"
           class="BoundingBox" />
        <path
           style="fill:none;stroke:#fff987;stroke-width:101;stroke-linecap:round;stroke-linejoin:miter"
           inkscape:connector-curvature="0"
           id="path8395"
           d="m 47644,16963 c 13,13 207,560 207,560" />
      </g>
    </g>
    <g
       transform="matrix(0.01,0,0,0.01,-312.19381,10.475238)"
       id="g8405"
       class="com.sun.star.drawing.LineShape">
      <g
         id="id823">
        <rect
           style="fill:none;stroke:none"
           id="rect8400"
           height="594"
           width="412"
           y="17128"
           x="48225"
           class="BoundingBox" />
        <path
           style="fill:none;stroke:#fff987;stroke-width:101;stroke-linecap:round;stroke-linejoin:miter"
           inkscape:connector-curvature="0"
           id="path8402"
           d="m 48585,17179 -309,491" />
      </g>
    </g>
    <g
       transform="matrix(0.01,0,0,0.01,-312.19381,10.475238)"
       id="g8412"
       class="com.sun.star.drawing.LineShape">
      <g
         id="id824">
        <rect
           style="fill:none;stroke:none"
           id="rect8407"
           height="373"
           width="458"
           y="17330"
           x="47303"
           class="BoundingBox" />
        <path
           style="fill:none;stroke:#fff987;stroke-width:101;stroke-linecap:round;stroke-linejoin:miter"
           inkscape:connector-curvature="0"
           id="path8409"
           d="m 47354,17381 355,270" />
      </g>
    </g>
    <g
       transform="matrix(0.01,0,0,0.01,-312.19381,10.475238)"
       id="g8419"
       class="com.sun.star.drawing.LineShape">
      <g
         id="id825">
        <rect
           style="fill:none;stroke:none"
           id="rect8414"
           height="193"
           width="258"
           y="17618"
           x="48501"
           class="BoundingBox" />
        <path
           style="fill:none;stroke:#fff987;stroke-width:88;stroke-linecap:round;stroke-linejoin:miter"
           inkscape:connector-curvature="0"
           id="path8416"
           d="m 48713,17663 -167,102" />
      </g>
    </g>
    <g
       transform="matrix(0.01,0,0,0.01,-312.19381,10.475238)"
       id="g8426"
       class="com.sun.star.drawing.LineShape">
      <g
         id="id826">
        <rect
           style="fill:none;stroke:none"
           id="rect8421"
           height="976"
           width="192"
           y="16674"
           x="48003"
           class="BoundingBox" />
        <path
           style="fill:none;stroke:#fff987;stroke-width:101;stroke-linecap:round;stroke-linejoin:miter"
           inkscape:connector-curvature="0"
           id="path8423"
           d="m 48143,16725 -89,873" />
      </g>
    </g>
    <g
       transform="matrix(0.01,0,0,0.01,-312.19381,10.475238)"
       id="g8433"
       class="com.sun.star.drawing.LineShape">
      <g
         id="id827">
        <rect
           style="fill:none;stroke:none"
           id="rect8428"
           height="471"
           width="310"
           y="18747"
           x="48310"
           class="BoundingBox" />
        <path
           style="fill:none;stroke:#ffffff;stroke-width:73;stroke-linecap:round;stroke-linejoin:miter"
           inkscape:connector-curvature="0"
           id="path8430"
           d="m 48582,18784 -235,396" />
      </g>
    </g>
    <g
       transform="matrix(0.01,0,0,0.01,-312.19381,10.475238)"
       id="g8440"
       class="com.sun.star.drawing.LineShape">
      <g
         id="id828">
        <rect
           style="fill:none;stroke:none"
           id="rect8435"
           height="204"
           width="156"
           y="19279"
           x="48155"
           class="BoundingBox" />
        <path
           style="fill:none;stroke:#ffffff;stroke-width:73;stroke-linecap:round;stroke-linejoin:miter"
           inkscape:connector-curvature="0"
           id="path8437"
           d="m 48273,19316 -81,129" />
      </g>
    </g>
  </g>
</svg>
