<?xml version="1.0" encoding="UTF-8"?>
<svg version="1.1" viewBox="0 0 55.441 9.4417" xmlns="http://www.w3.org/2000/svg"><defs><clipPath id="c"><path d="m42.5 901.4h612.28v-858.9h-612.28z"/></clipPath></defs><g transform="translate(-35.78 -36.011)"><g transform="matrix(.35278 0 0 -.35278 -1.8246 111.36)"><g clip-path="url(#c)"><g transform="translate(127 208.42)"><path d="m0 0c-.098-.622-.299-1.216-.607-1.748-2.155 0-4.064.426-5.726 1.278.098.622.266 1.214.503 1.777 1.749-.061 3.691-.485 5.83-1.307m9.123-10.093c-.939-.3-1.846-.562-2.752-.825.09-1.431.291-4.052.528-7.8-.23-.15-.634-.245-1.179-.279-.614-.039-1.027.003-1.236.059-.389 1.822-.68 4.266-.907 7.295-2.997-.737-6.008-1.27-9.029-1.632-.337.458-.514 1.096-.57 1.982 3.063.775 6.199 1.487 9.441 2.138-.174 2.759-.376 6.475-.572 11.182.439.097.877.194 1.354.223.409.026.822-.016 1.236-.058.366-5.245.629-8.853.754-10.83.878.194 1.723.349 2.568.505.178-.638.321-1.279.364-1.96m-10.537 5.42c-.046-.345-.061-.654-.078-.929-.038-.481-.084-.826-.139-1.035-.886-.055-1.743-.042-2.637.038-.89.013-1.748.061-2.613.211-.039.614-.01 1.231.084 1.921 1.882-.017 3.664-.076 5.383-.206m-7.206 4.674c-3.704-.919-7.426-1.565-11.165-1.939-.375.523-.561 1.298-.621 2.251 3.614.709 7.406 1.326 11.373 1.885.216-.705.366-1.448.413-2.197m-6.38-7.28c-.088 1.397-.11 2.832-.099 4.269.336.09.741.185 1.15.21.408.027.787-.018 1.133-.064.167-1.564.328-3.025.448-4.385 1.336-.018 2.739-.031 4.213-.075.043-.681.022-1.435-.064-2.227-1.363-.087-2.66-.135-3.959-.148l.143-2.249c1.303-.054 2.577-.179 3.818-.339-.046-.346-.059-.689-.072-1.031-.035-.515-.113-.897-.167-1.14-.817-.052-1.605-.033-2.434.086-.377.01-.721.057-1.032.105.078-1.774.145-3.377.168-4.812-.2-.081-.571-.173-1.116-.208-.477-.03-.788.018-.962.076-.272 1.59-.48 3.253-.659 4.986-1.168-.998-2.41-1.897-3.694-2.697-.639.37-1.112.819-1.489 1.377 1.31 1.451 2.967 2.822 4.943 4.041-.069.543-.106 1.123-.143 1.702l-.004.068c-1.676-.003-3.32.029-4.9.133l-.076 1.194c-.019.306-.038.613.008.958 1.499.095 3.105.128 4.846.17" fill="#231f20"/></g><g transform="translate(162.7 212.92)"><path d="m0 0c-.683-2.117-1.229-3.585-1.673-4.404-.853 0-1.57.171-2.117.511.41 1.707.922 3.245 1.605 4.541.853-.068 1.57-.307 2.185-.648m-8.33-3.175c-.614-.342-1.229-.547-1.843-.615-.751 1.059-1.16 2.355-1.297 3.926.478.239 1.092.41 1.809.547.615-.888 1.058-2.151 1.331-3.858m10.071-2.629c.273-2.355.409-4.608.409-6.759-.204-.102-.546-.136-.956-.136-.307 0-.682 0-1.126.068-.205.989-.409 2.561-.58 4.745-5.53 0-11.129.034-16.727.103-.103.306-.137.682-.137 1.092 0 .307 0 .614.068.956 6.452 0 12.802-.035 19.049-.069m-6.384-6.588c-.751-2.014-1.775-3.925-3.038-5.769.068-.239.137-.478.205-.717 2.458.068 5.018.171 7.646.239.069-.273.137-.615.137-.99 0-.512-.034-.888-.068-1.093-2.39-.17-4.814-.272-7.203-.34.307-1.673.478-3.278.478-4.814-.376-.137-1.161-.205-2.356-.205-.887 0-1.741.137-2.526.342 0 .546.035 1.092.137 1.57h2.56c-.273.989-.478 1.98-.683 3.004-3.277-.137-6.554-.239-9.865-.239-.103.648-.137 1.331-.137 2.014 2.97.136 6.145.307 9.524.444-.102.41-.17.785-.239 1.194.615 1.127 1.263 2.321 2.014 3.585-2.867.273-5.7.648-8.534 1.127 0 .682.069 1.365.273 1.979 3.824-.17 7.715-.614 11.675-1.331m-10.719 8.602c-.409-.341-.99-.683-1.809-.989-.99 1.057-1.877 2.424-2.628 4.131.511.409 1.126.716 1.843.955 1.229-1.536 2.082-2.902 2.594-4.097m-3.721-2.662c0-2.185-.136-4.574-.375-7.237-.273-.103-.649-.137-1.161-.137s-.887.068-1.092.239c0 3.209.102 5.633.376 7.272.341.034.716.068 1.16.068.376 0 .751-.068 1.092-.205" fill="#231f20"/></g><g transform="translate(179.5 197.19)"><path d="m0 0c-.247.194-1.235 1.147-2.965 2.841-1.57 1.536-2.506 2.383-2.823 2.542-1.924-1.342-3.494-2.471-4.73-3.389-.088 0-.211.107-.353.3-.141.177-.211.317-.211.389.211.352 1.059 1.093 2.559 2.223 1.57 1.199 2.558 1.818 2.947 1.818.335 0 1.429-.918 3.282-2.753 1.447-1.448 2.488-2.524 3.088-3.265-.141-.247-.406-.477-.794-.706" fill="#231f20"/></g><g transform="translate(192.89 190.26)"><path d="m0 0c-.304.063-.592.208-.848.432 1.056 1.886 1.599 3.326 1.599 4.318 0 .848-.304 1.615-.895 2.318-.928.976-2.095 1.472-3.502 1.472-.64 0-1.328-.16-2.047-.464-1.52-.864-2.271-2.079-2.271-3.646 0-.544.16-1.072.495-1.568.288-.383.528-.591.688-.591.112 0 .288.192.544.559 1.007 1.328 1.791 2.415 2.335 3.279.319-.176.591-.368.799-.591-.16-.304-.751-1.168-1.759-2.591-.975-1.376-1.551-2.064-1.727-2.064-.4.017-.911.384-1.519 1.088-.56.768-.832 1.583-.832 2.479 0 1.951.848 3.438 2.543 4.445.832.464 1.743.704 2.751.704 1.791 0 3.262-.64 4.414-1.919.671-.832 1.023-1.791 1.055-2.91 0-1.424-.608-3.007-1.823-4.75" fill="#231f20"/></g><g transform="translate(212.98 197.93)"><path d="m0 0c-1.888.363-4.606 1.414-8.088 3.121.137.813.409 1.436.816 1.901.717-.172 2.092-.68 4.187-1.459 2.13-.874 3.409-1.45 3.837-1.696-.109-.65-.349-1.272-.752-1.867m-10.414-8.794c-.679-.021-1.1-.001-1.263.026-.21 1.612-.388 5.361-.569 11.31-.052 1.746-.092 5.208-.119 10.385.289.073.675.15 1.16.165.258.008.583-.048 1.039-.131l.782-21.563c-.223-.103-.577-.178-1.03-.192" fill="#231f20"/></g><g transform="translate(241.1 209.36)"><path d="m0 0c-.497-.194-.809-.312-.999-.324-.095-.007-.24.239-.431.704-.19.434-.275.747-.288.938.614.362 1.172.591 1.613.685.126.009.386-.516.778-1.574-.025-.098-.239-.24-.673-.429m-3.38-1.445c-.495-.226-.804-.374-.995-.388-.126-.009-.271.237-.433.736-.153.373-.239.686-.254.909.52.323 1.077.584 1.64.75.131-.054.423-.577.876-1.599-.027-.066-.305-.212-.834-.408m-.053-6.197c-1.984-.391-6.376-1.044-13.171-2.021.11-1.141.207-2.092.261-2.886.098-1.43.159-3.245.244-5.41 1.236-.33 4.087-.485 8.489-.438.051-.285.1-.537.113-.727.02-.286-.022-.607-.125-.966-.438-.126-1.008-.197-1.707-.245-1.016-.069-2.484-.074-4.469.013-2.305.096-3.723.287-4.253.569-.18.307-.442 3.193-.817 8.658-.171 2.478-.256 5.121-.198 7.998.154.075.436.158.849.186.318.022.637.013 1.023-.026.142-1.138.31-2.66.441-4.565 6.294.847 10.663 1.37 13.105 1.602.106-.153.189-.434.219-.879.022-.318.01-.606-.004-.863" fill="#231f20"/></g><g transform="translate(263.55 205.98)"><path d="m0 0-8.421.741c-1.958.173-4.463.492-7.579.964-.102.338-.108.634-.086.896.024.26.085.584.182.937l7.515-.563c3.754-.33 6.585-.678 8.493-1.043.075-.271.112-.603.08-.961-.026-.294-.087-.618-.184-.971m-2.362-13.377c-1.351-2.644-2.251-4.274-2.733-4.891-.772.201-1.402.519-1.892.924.763 1.577 2.002 4.067 3.68 7.439-2.261.462-7.386 1.275-15.443 2.412-.028.43-.032.76-.012.988.017.195.078.519.217.967 2.61-.23 5.118-.517 7.489-.857 4.612-.668 8.307-1.291 11.017-1.89-.232-.77-1.007-2.478-2.323-5.092" fill="#231f20"/></g></g></g></g></svg>
