<?xml version="1.0" encoding="UTF-8"?>
<svg width="19.99mm" height="16.71mm" version="1.1" viewBox="0 0 19.99 16.71" xmlns="http://www.w3.org/2000/svg"><g transform="translate(17.555 -198.69)"><g class="com.sun.star.drawing.ClosedBezierShape" transform="matrix(.01 0 0 .01 -593.35 117.39)"><rect class="BoundingBox" x="57603" y="8239" width="1506" height="1539" fill="none"/><path d="m59108 9516c-368 361-950 346-1302-35-280-304-269-785 25-1075 237-231 610-221 834 23 179 195 172 503-16 688-151 148-390 141-533-15-115-124-110-321 10-440 97-94 249-90 341 10 74 79 71 205-6 281-62 61-160 58-219-6-47-51-45-131 5-180z" fill="#f9b29e"/></g><g class="com.sun.star.drawing.OpenBezierShape" transform="matrix(.01 0 0 .01 -593.35 117.39)"><g fill="none"><rect class="BoundingBox" x="57580" y="8216" width="1552" height="1585"/><path d="m59108 9516c-368 361-950 346-1302-35-280-304-269-785 25-1075 237-231 610-221 834 23 179 195 172 503-16 688-151 148-390 141-533-15-115-124-110-321 10-440 97-94 249-90 341 10 74 79 71 205-6 281-62 61-160 58-219-6-47-51-45-131 5-180" stroke="#b2b1b1" stroke-linecap="round" stroke-linejoin="round" stroke-width="46"/></g></g><g class="com.sun.star.drawing.PolyPolygonShape" transform="matrix(.01 0 0 .01 -593.35 117.39)"><rect class="BoundingBox" x="58970" y="8130" width="187" height="874" fill="none"/><path d="m58996 8156 134 3-120 818z" fill="#b9b7b8"/><path d="m58996 8156 134 3-120 818z" fill="none" stroke="#b9b7b8" stroke-linecap="round" stroke-linejoin="round" stroke-width="51"/></g><g class="com.sun.star.drawing.PolyPolygonShape" transform="matrix(.01 0 0 .01 -593.35 117.39)"><rect class="BoundingBox" x="59218" y="8632" width="361" height="419" fill="none"/><path d="m59244 9024 80-271 228-95z" fill="#b9b7b8"/><path d="m59244 9024 80-271 228-95z" fill="none" stroke="#b9b7b8" stroke-linecap="round" stroke-linejoin="round" stroke-width="51"/></g></g></svg>
