<?xml version="1.0" encoding="UTF-8"?>
<svg width="26.76mm" height="22.471mm" version="1.1" viewBox="0 0 26.76 22.471" xmlns="http://www.w3.org/2000/svg"><g transform="translate(-351.49 -73.893)"><g class="com.sun.star.drawing.ClosedBezierShape" transform="matrix(.01 0 0 .01 -12.013 5.4245)"><rect class="BoundingBox" x="37597" y="6880" width="317" height="272" fill="none"/><path d="m37706 7129s-150-58-61-169c0 0 63-154 239 33z" fill="#dedddd"/><path d="m37706 7129s-150-58-61-169c0 0 63-154 239 33z" fill="none" stroke="#b2b1b1" stroke-width="38"/></g><g class="com.sun.star.drawing.ClosedBezierShape" transform="matrix(.01 0 0 .01 -12.013 5.4245)"><rect class="BoundingBox" x="37627" y="6917" width="128" height="152" fill="none"/><path d="m37714 7010c-19 29-47 46-60 35-14-9-10-41 10-70 20-30 47-46 62-36 14 10 9 41-12 71z" fill="#fcfcfc"/><path d="m37714 7010c-19 29-47 46-60 35-14-9-10-41 10-70 20-30 47-46 62-36 14 10 9 41-12 71z" fill="none" stroke="#b2b1b1" stroke-width="38"/></g><g class="com.sun.star.drawing.ClosedBezierShape" transform="matrix(.01 0 0 .01 -12.013 5.4245)"><rect class="BoundingBox" x="37380" y="6847" width="755" height="901" fill="none"/><path d="m37407 7372s728-685 705-461c0 0 61 7-412 803z" fill="#acd6e7"/><path d="m37407 7372s728-685 705-461c0 0 61 7-412 803z" fill="none" stroke="#b2b1b1" stroke-width="38"/></g><g class="com.sun.star.drawing.ClosedBezierShape" transform="matrix(.01 0 0 .01 -12.013 5.4245)"><rect class="BoundingBox" x="36350" y="7040" width="2396" height="1919" fill="none"/><path d="m36718 7207s351-386 778 90c0 0 1126 1343 1216 1391 0 0 57 66-63 173 0 0-84 77-122 78 0 0-2085-1078-2152-1280 0 0-80-223 343-452z" fill="#fcfcfc"/><path d="m36718 7207s351-386 778 90c0 0 1126 1343 1216 1391 0 0 57 66-63 173 0 0-84 77-122 78 0 0-2085-1078-2152-1280 0 0-80-223 343-452z" fill="none" stroke="#b2b1b1" stroke-width="38"/></g><g class="com.sun.star.drawing.ClosedBezierShape" transform="matrix(.01 0 0 .01 -12.013 5.4245)"><rect class="BoundingBox" x="36805" y="8042" width="274" height="337" fill="none"/><path d="m37058 8091s-171-107-230 92c0 0-45 151 223 174z" fill="#dedddd"/><path d="m37058 8091s-171-107-230 92c0 0-45 151 223 174z" fill="none" stroke="#b2b1b1" stroke-width="38"/></g><g class="com.sun.star.drawing.ClosedBezierShape" transform="matrix(.01 0 0 .01 -12.013 5.4245)"><rect class="BoundingBox" x="36823" y="8078" width="165" height="198" fill="none"/><path d="m36956 8194c-20 42-58 69-86 59-28-11-36-53-16-96 19-42 58-69 86-58 29 10 36 52 16 95z" fill="#fcfcfc"/><path d="m36956 8194c-20 42-58 69-86 59-28-11-36-53-16-96 19-42 58-69 86-58 29 10 36 52 16 95z" fill="none" stroke="#b2b1b1" stroke-width="38"/></g><g class="com.sun.star.drawing.ClosedBezierShape" transform="matrix(.01 0 0 .01 -12.013 5.4245)"><rect class="BoundingBox" x="36806" y="8363" width="304" height="307" fill="none"/><path d="m37041 8390s-194-59-216 141c0 0-17 152 261 111z" fill="#dedddd"/><path d="m37041 8390s-194-59-216 141c0 0-17 152 261 111z" fill="none" stroke="#b2b1b1" stroke-width="38"/></g><g class="com.sun.star.drawing.ClosedBezierShape" transform="matrix(.01 0 0 .01 -12.013 5.4245)"><rect class="BoundingBox" x="36824" y="8407" width="161" height="201" fill="none"/><path d="m36958 8517c-15 44-51 75-81 70-30-6-43-46-28-90 14-44 50-75 80-70 31 5 43 45 29 90z" fill="#fff"/><path d="m36958 8517c-15 44-51 75-81 70-30-6-43-46-28-90 14-44 50-75 80-70 31 5 43 45 29 90z" fill="none" stroke="#b2b1b1" stroke-width="38"/></g><g class="com.sun.star.drawing.ClosedBezierShape" transform="matrix(.01 0 0 .01 -12.013 5.4245)"><rect class="BoundingBox" x="37034" y="7813" width="583" height="1262" fill="none"/><path d="m37048 7814s-88 1126 178 1255c0 0 106 127 390-900l-570-356z" fill="#acd6e7"/></g><g class="com.sun.star.drawing.OpenBezierShape" transform="matrix(.01 0 0 .01 -12.013 5.4245)"><g fill="none"><rect class="BoundingBox" x="37015" y="7794" width="621" height="1300"/><path d="m37048 7814s-88 1126 178 1255c0 0 106 127 390-900l-570-356" stroke="#b2b1b1" stroke-linecap="round" stroke-linejoin="round" stroke-width="38"/></g></g><g class="com.sun.star.drawing.ClosedBezierShape" transform="matrix(.01 0 0 .01 -12.013 5.4245)"><rect class="BoundingBox" x="38277" y="8557" width="327" height="491" fill="none"/><path d="m38299 8593s-55 821 279 205z" fill="#acd6e7"/><path d="m38299 8593s-55 821 279 205z" fill="none" stroke="#b2b1b1" stroke-width="38"/></g><g class="com.sun.star.drawing.ClosedBezierShape" transform="matrix(.01 0 0 .01 -12.013 5.4245)"><rect class="BoundingBox" x="38452" y="8319" width="574" height="450" fill="none"/><path d="m38485 8465s977-424 253 275z" fill="#acd6e7"/><path d="m38485 8465s977-424 253 275z" fill="none" stroke="#b2b1b1" stroke-width="38"/></g><g class="com.sun.star.drawing.PolyPolygonShape" transform="matrix(.01 0 0 .01 -12.013 5.4245)"><rect class="BoundingBox" x="36662" y="7194" width="338" height="312" fill="none"/><path d="m36842 7213-161 94 205 179 94-146z" fill="#cee2ea"/><path d="m36842 7213-161 94 205 179 94-146z" fill="none" stroke="#b2b1b1" stroke-linecap="round" stroke-linejoin="round" stroke-width="38"/></g><g class="com.sun.star.drawing.PolyPolygonShape" transform="matrix(.01 0 0 .01 -12.013 5.4245)"><rect class="BoundingBox" x="36903" y="7358" width="291" height="332" fill="none"/><path d="m37011 7377-88 146 184 147 67-152z" fill="#cee2ea"/><path d="m37011 7377-88 146 184 147 67-152z" fill="none" stroke="#b2b1b1" stroke-linejoin="round" stroke-width="38"/></g><g class="com.sun.star.drawing.ClosedBezierShape" transform="matrix(.01 0 0 .01 -12.013 5.4245)"><rect class="BoundingBox" x="37254" y="7658" width="182" height="194" fill="none"/><path d="m37403 7786c-22 38-66 56-99 38-33-17-41-63-18-102 22-39 67-56 99-38 32 17 41 63 18 102z" fill="#cee2ea"/><path d="m37403 7786c-22 38-66 56-99 38-33-17-41-63-18-102 22-39 67-56 99-38 32 17 41 63 18 102z" fill="none" stroke="#b2b1b1" stroke-width="38"/></g><g class="com.sun.star.drawing.ClosedBezierShape" transform="matrix(.01 0 0 .01 -12.013 5.4245)"><rect class="BoundingBox" x="37820" y="8110" width="182" height="194" fill="none"/><path d="m37969 8239c-22 38-66 55-99 38-33-18-41-63-18-102 22-39 66-56 99-39 32 18 41 64 18 103z" fill="#cee2ea"/><path d="m37969 8239c-22 38-66 55-99 38-33-18-41-63-18-102 22-39 66-56 99-39 32 18 41 64 18 103z" fill="none" stroke="#b2b1b1" stroke-width="38"/></g><g class="com.sun.star.drawing.ClosedBezierShape" transform="matrix(.01 0 0 .01 -12.013 5.4245)"><rect class="BoundingBox" x="37643" y="7962" width="182" height="195" fill="none"/><path d="m37792 8091c-22 38-66 56-100 38-32-17-40-63-18-102s68-56 100-38c32 17 40 63 18 102z" fill="#cee2ea"/><path d="m37792 8091c-22 38-66 56-100 38-32-17-40-63-18-102s68-56 100-38c32 17 40 63 18 102z" fill="none" stroke="#b2b1b1" stroke-width="38"/></g><g class="com.sun.star.drawing.ClosedBezierShape" transform="matrix(.01 0 0 .01 -12.013 5.4245)"><rect class="BoundingBox" x="37451" y="7812" width="182" height="194" fill="none"/><path d="m37600 7941c-22 38-67 55-100 38-32-18-40-63-18-102s66-56 100-39c32 18 40 64 18 103z" fill="#cee2ea"/><path d="m37600 7941c-22 38-67 55-100 38-32-18-40-63-18-102s66-56 100-39c32 18 40 64 18 103z" fill="none" stroke="#b2b1b1" stroke-width="38"/></g></g></svg>
