<?xml version="1.0" encoding="UTF-8"?>
<svg width="35.4mm" height="16.9mm" version="1.1" viewBox="0 0 35.4 16.9" xmlns="http://www.w3.org/2000/svg"><g transform="translate(-255.76 -112.38)"><g class="com.sun.star.drawing.PolyPolygonShape" transform="matrix(.01 0 0 .01 -96.679 -2.135)"><rect class="BoundingBox" x="35465" y="12118" width="225" height="427" fill="none"/><path d="m35465 12534 71-404 153-11-77 425z" fill="#656263"/></g><g class="com.sun.star.drawing.PolyPolygonShape" transform="matrix(.01 0 0 .01 -96.679 -2.135)"><rect class="BoundingBox" x="35682" y="12082" width="326" height="459" fill="none"/><path d="m35852 12540-169-435 152-23 172 413z" fill="#656263"/></g><g class="com.sun.star.drawing.ClosedBezierShape" transform="matrix(.01 0 0 .01 -96.679 -2.135)"><rect class="BoundingBox" x="36016" y="11859" width="2768" height="1021" fill="none"/><path d="m36094 12618s-1-15 0 0c2 66 33 265 90 261 0 0 999-173 1091-187 0 0 918-127 1003-154l504-73s-327-247-358-326c0 0-180-235-403-260 0 0-696-107-1094 175 0 0-136 158-254 212 0 0-339 47-476-147 0 0-116-185-155-161 0 0-86-106 52 660z" fill="#5e5b5c"/></g><g class="com.sun.star.drawing.ClosedBezierShape" transform="matrix(.01 0 0 .01 -96.679 -2.135)"><rect class="BoundingBox" x="35244" y="11566" width="702" height="618" fill="none"/><path d="m35244 11685 95 497s143 3 292-13c129-14 263-42 314-96l-66-507s-110 81-225 66c0 0-404-39-410 53z" fill="#5e5b5c"/></g><g class="com.sun.star.drawing.OpenBezierShape" transform="matrix(.01 0 0 .01 -96.679 -2.135)"><g fill="none"><rect class="BoundingBox" x="35972" y="11452" width="150" height="637"/><path d="m36064 12063c-113-804-103-793 43 22" stroke="#393536" stroke-width="29"/></g></g><g class="com.sun.star.drawing.ClosedBezierShape" transform="matrix(.01 0 0 .01 -96.679 -2.135)"><rect class="BoundingBox" x="35360" y="12245" width="883" height="897" fill="none"/><path d="m36197 12632c33 222-117 430-335 463-219 34-424-119-457-341-33-223 117-431 336-465 219-33 423 119 456 343z" fill="#353132"/><path d="m36197 12632c33 222-117 430-335 463-219 34-424-119-457-341-33-223 117-431 336-465 219-33 423 119 456 343z" fill="none" stroke="#4d4a4a" stroke-width="80"/></g><g class="com.sun.star.drawing.ClosedBezierShape" transform="matrix(.01 0 0 .01 -96.679 -2.135)"><rect class="BoundingBox" x="35663" y="12559" width="270" height="273" fill="none"/><path d="m35881 12682c7 47-25 91-71 98s-89-25-96-72c-7-48 25-91 70-98 47-7 90 25 97 72z" fill="#4d4a4a"/><path d="m35881 12682c7 47-25 91-71 98s-89-25-96-72c-7-48 25-91 70-98 47-7 90 25 97 72z" fill="none" stroke="#4d4a4a" stroke-width="100"/></g><g class="com.sun.star.drawing.LineShape" transform="matrix(.01 0 0 .01 -96.679 -2.135)"><g fill="none"><rect class="BoundingBox" x="35719" y="12325" width="168" height="773"/><path d="m35745 12329 115 764" stroke="#4d4a4a" stroke-width="51"/></g></g><g class="com.sun.star.drawing.LineShape" transform="matrix(.01 0 0 .01 -96.679 -2.135)"><g fill="none"><rect class="BoundingBox" x="35421" y="12622" width="761" height="170"/><path d="m35425 12765 752-117" stroke="#4d4a4a" stroke-width="51"/></g></g><g class="com.sun.star.drawing.LineShape" transform="matrix(.01 0 0 .01 -96.679 -2.135)"><g fill="none"><rect class="BoundingBox" x="35552" y="12391" width="492" height="655"/><path d="m36022 12406-449 624" stroke="#4d4a4a" stroke-width="51"/></g></g><g class="com.sun.star.drawing.LineShape" transform="matrix(.01 0 0 .01 -96.679 -2.135)"><g fill="none"><rect class="BoundingBox" x="35477" y="12464" width="647" height="500"/><path d="m35493 12485 614 457" stroke="#4d4a4a" stroke-width="51"/></g></g><g class="com.sun.star.drawing.ClosedBezierShape" transform="matrix(.01 0 0 .01 -96.679 -2.135)"><rect class="BoundingBox" x="36840" y="12220" width="1767" height="252" fill="none"/><path d="m38606 12470s-59-31-167-71c-276-102-871-265-1599-125l9 143s927-256 1506-42z" fill="#c11f21"/></g><g class="com.sun.star.drawing.OpenBezierShape" transform="matrix(.01 0 0 .01 -96.679 -2.135)"><g fill="none"><rect class="BoundingBox" x="36817" y="12197" width="1813" height="297"/><path d="m38606 12470s-59-31-167-71c-276-102-871-265-1599-125l9 143s927-256 1506-42" stroke="#c11f21" stroke-linecap="round" stroke-linejoin="round" stroke-width="45"/></g></g><g class="com.sun.star.drawing.LineShape" transform="matrix(.01 0 0 .01 -96.679 -2.135)"><g fill="none"><rect class="BoundingBox" x="38417" y="12446" width="213" height="117"/><path d="m38440 12539 166-70" stroke="#c11f21" stroke-linecap="round" stroke-linejoin="round" stroke-width="45"/></g></g><g class="com.sun.star.drawing.ClosedBezierShape" transform="matrix(.01 0 0 .01 -96.679 -2.135)"><g fill="none"><rect class="BoundingBox" x="35727" y="12621" width="152" height="153"/><path d="m35745 12697c0 32 27 58 58 58 32 0 57-26 57-58s-25-58-57-58c-31 0-58 26-58 58z" stroke="#c11f21" stroke-linecap="round" stroke-linejoin="round" stroke-width="36"/></g></g><g class="com.sun.star.drawing.ClosedBezierShape" transform="matrix(.01 0 0 .01 -96.679 -2.135)"><rect class="BoundingBox" x="38041" y="12374" width="740" height="254" fill="none"/><path d="m38043 12458 20 132s-8 49 93 32l579-92c15-2 57 0 41-82l-8-51s-16-33-82-19c0 0-287 75-360 34 0 0-94-46-160-35 0 0-142-14-123 81z" fill="#2e2a2b"/></g><g class="com.sun.star.drawing.ClosedBezierShape" transform="matrix(.01 0 0 .01 -96.679 -2.135)"><g fill="none"><rect class="BoundingBox" x="37438" y="12456" width="152" height="153"/><path d="m37456 12532c0 32 26 58 58 58 31 0 57-26 57-58 0-31-26-58-57-58-32 0-58 27-58 58z" stroke="#c11f21" stroke-linecap="round" stroke-linejoin="round" stroke-width="36"/></g></g><g class="com.sun.star.drawing.TextShape" transform="matrix(.01 0 0 .01 -96.679 -2.135)"><rect class="BoundingBox" x="36923" y="12112" width="116" height="132" fill="none"/><text class="TextShape" transform="rotate(-3.2,36929,12216)"><tspan class="TextParagraph" font-family="KozGoPr6Nular" font-size="104px" font-weight="400"><tspan class="TextPosition" x="36929" y="12216"><tspan fill="#ffffff">T</tspan></tspan></tspan></text></g><g class="com.sun.star.drawing.TextShape" transform="matrix(.01 0 0 .01 -96.679 -2.135)"><rect class="BoundingBox" x="36981" y="12109" width="116" height="131" fill="none"/><text class="TextShape" transform="rotate(-2.8,36986,12212)"><tspan class="TextParagraph" font-family="KozGoPr6Nular" font-size="104px" font-weight="400"><tspan class="TextPosition" x="36986" y="12212"><tspan fill="#ffffff">o</tspan></tspan></tspan></text></g><g class="com.sun.star.drawing.TextShape" transform="matrix(.01 0 0 .01 -96.679 -2.135)"><rect class="BoundingBox" x="37046" y="12107" width="115" height="130" fill="none"/><text class="TextShape" transform="rotate(-2.4,37050,12209)"><tspan class="TextParagraph" font-family="KozGoPr6Nular" font-size="104px" font-weight="400"><tspan class="TextPosition" x="37050" y="12209"><tspan fill="#ffffff">k</tspan></tspan></tspan></text></g><g class="com.sun.star.drawing.TextShape" transform="matrix(.01 0 0 .01 -96.679 -2.135)"><rect class="BoundingBox" x="37101" y="12106" width="114" height="129" fill="none"/><text class="TextShape" transform="rotate(-2,37104,12207)"><tspan class="TextParagraph" font-family="KozGoPr6Nular" font-size="104px" font-weight="400"><tspan class="TextPosition" x="37104" y="12207"><tspan fill="#ffffff">y</tspan></tspan></tspan></text></g><g class="com.sun.star.drawing.TextShape" transform="matrix(.01 0 0 .01 -96.679 -2.135)"><rect class="BoundingBox" x="37156" y="12104" width="113" height="129" fill="none"/><text class="TextShape" transform="rotate(-1.6,37159,12205)"><tspan class="TextParagraph" font-family="KozGoPr6Nular" font-size="104px" font-weight="400"><tspan class="TextPosition" x="37159" y="12205"><tspan fill="#ffffff">o</tspan></tspan></tspan></text></g><g class="com.sun.star.drawing.TextShape" transform="matrix(.01 0 0 .01 -96.679 -2.135)"><rect class="BoundingBox" x="37221" y="12103" width="113" height="158" fill="none"/><text class="TextShape" transform="rotate(-1.2,37224,12229)"><tspan class="TextParagraph" font-family="'Noto Sans CJK HK', sans-serif" font-size="104px" font-weight="400"><tspan class="TextPosition" x="37224" y="12229"><tspan fill="#ffffff"/></tspan></tspan></text></g><g class="com.sun.star.drawing.TextShape" transform="matrix(.01 0 0 .01 -96.679 -2.135)"><rect class="BoundingBox" x="37246" y="12103" width="111" height="127" fill="none"/><text class="TextShape" transform="rotate(-.9 37248 12202)"><tspan class="TextParagraph" font-family="KozGoPr6Nular" font-size="104px" font-weight="400"><tspan class="TextPosition" x="37248" y="12202"><tspan fill="#ffffff">U</tspan></tspan></tspan></text></g><g class="com.sun.star.drawing.TextShape" transform="matrix(.01 0 0 .01 -96.679 -2.135)"><rect class="BoundingBox" x="37323" y="12103" width="110" height="126" fill="none"/><text class="TextShape" transform="rotate(-.3 37324 12201)"><tspan class="TextParagraph" font-family="KozGoPr6Nular" font-size="104px" font-weight="400"><tspan class="TextPosition" x="37324" y="12201"><tspan fill="#ffffff">n</tspan></tspan></tspan></text></g><g class="com.sun.star.drawing.TextShape" transform="matrix(.01 0 0 .01 -96.679 -2.135)"><rect class="BoundingBox" x="37388" y="12104" width="110" height="126" fill="none"/><text class="TextShape"><tspan class="TextParagraph" font-family="KozGoPr6Nular" font-size="104px" font-weight="400"><tspan class="TextPosition" x="37389" y="12201"><tspan fill="#ffffff">i</tspan></tspan></tspan></text></g><g class="com.sun.star.drawing.TextShape" transform="matrix(.01 0 0 .01 -96.679 -2.135)"><rect class="BoundingBox" x="37416" y="12104" width="110" height="126" fill="none"/><text class="TextShape" transform="rotate(.3 37416 12201)"><tspan class="TextParagraph" font-family="KozGoPr6Nular" font-size="104px" font-weight="400"><tspan class="TextPosition" x="37416" y="12201"><tspan fill="#ffffff">v</tspan></tspan></tspan></text></g><g class="com.sun.star.drawing.TextShape" transform="matrix(.01 0 0 .01 -96.679 -2.135)"><rect class="BoundingBox" x="37471" y="12104" width="111" height="127" fill="none"/><text class="TextShape" transform="rotate(.8 37472 12201)"><tspan class="TextParagraph" font-family="KozGoPr6Nular" font-size="104px" font-weight="400"><tspan class="TextPosition" x="37472" y="12201"><tspan fill="#ffffff">e</tspan></tspan></tspan></text></g><g class="com.sun.star.drawing.TextShape" transform="matrix(.01 0 0 .01 -96.679 -2.135)"><rect class="BoundingBox" x="37529" y="12105" width="112" height="128" fill="none"/><text class="TextShape" transform="rotate(1.2,37530,12202)"><tspan class="TextParagraph" font-family="KozGoPr6Nular" font-size="104px" font-weight="400"><tspan class="TextPosition" x="37530" y="12202"><tspan fill="#ffffff">r</tspan></tspan></tspan></text></g><g class="com.sun.star.drawing.TextShape" transform="matrix(.01 0 0 .01 -96.679 -2.135)"><rect class="BoundingBox" x="37567" y="12106" width="113" height="129" fill="none"/><text class="TextShape" transform="rotate(1.6,37568,12203)"><tspan class="TextParagraph" font-family="KozGoPr6Nular" font-size="104px" font-weight="400"><tspan class="TextPosition" x="37568" y="12203"><tspan fill="#ffffff">s</tspan></tspan></tspan></text></g><g class="com.sun.star.drawing.TextShape" transform="matrix(.01 0 0 .01 -96.679 -2.135)"><rect class="BoundingBox" x="37612" y="12107" width="114" height="129" fill="none"/><text class="TextShape" transform="rotate(2,37614,12204)"><tspan class="TextParagraph" font-family="KozGoPr6Nular" font-size="104px" font-weight="400"><tspan class="TextPosition" x="37614" y="12204"><tspan fill="#ffffff">i</tspan></tspan></tspan></text></g><g class="com.sun.star.drawing.TextShape" transform="matrix(.01 0 0 .01 -96.679 -2.135)"><rect class="BoundingBox" x="37639" y="12108" width="115" height="130" fill="none"/><text class="TextShape" transform="rotate(2.3,37641,12205)"><tspan class="TextParagraph" font-family="KozGoPr6Nular" font-size="104px" font-weight="400"><tspan class="TextPosition" x="37641" y="12205"><tspan fill="#ffffff">t</tspan></tspan></tspan></text></g><g class="com.sun.star.drawing.TextShape" transform="matrix(.01 0 0 .01 -96.679 -2.135)"><rect class="BoundingBox" x="37677" y="12110" width="116" height="131" fill="none"/><text class="TextShape" transform="rotate(2.8,37679,12207)"><tspan class="TextParagraph" font-family="KozGoPr6Nular" font-size="104px" font-weight="400"><tspan class="TextPosition" x="37679" y="12207"><tspan fill="#ffffff">y</tspan></tspan></tspan></text></g><g class="com.sun.star.drawing.TextShape" transform="matrix(.01 0 0 .01 -96.679 -2.135)"><rect class="BoundingBox" x="37731" y="12113" width="118" height="161" fill="none"/><text class="TextShape" transform="rotate(3.3,37733,12236)"><tspan class="TextParagraph" font-family="'Noto Sans CJK HK', sans-serif" font-size="104px" font-weight="400"><tspan class="TextPosition" x="37733" y="12236"><tspan fill="#ffffff"/></tspan></tspan></text></g><g class="com.sun.star.drawing.TextShape" transform="matrix(.01 0 0 .01 -96.679 -2.135)"><rect class="BoundingBox" x="37757" y="12114" width="118" height="132" fill="none"/><text class="TextShape" transform="rotate(3.8,37760,12211)"><tspan class="TextParagraph" font-family="KozGoPr6Nular" font-size="104px" font-weight="400"><tspan class="TextPosition" x="37760" y="12211"><tspan fill="#ffffff">o</tspan></tspan></tspan></text></g><g class="com.sun.star.drawing.TextShape" transform="matrix(.01 0 0 .01 -96.679 -2.135)"><rect class="BoundingBox" x="37821" y="12119" width="119" height="133" fill="none"/><text class="TextShape" transform="rotate(4.4,37824,12216)"><tspan class="TextParagraph" font-family="KozGoPr6Nular" font-size="104px" font-weight="400"><tspan class="TextPosition" x="37824" y="12216"><tspan fill="#ffffff">f</tspan></tspan></tspan></text></g><g class="com.sun.star.drawing.TextShape" transform="matrix(.01 0 0 .01 -96.679 -2.135)"><rect class="BoundingBox" x="37853" y="12121" width="122" height="164" fill="none"/><text class="TextShape" transform="rotate(4.8,37856,12244)"><tspan class="TextParagraph" font-family="'Noto Sans CJK HK', sans-serif" font-size="104px" font-weight="400"><tspan class="TextPosition" x="37856" y="12244"><tspan fill="#ffffff"/></tspan></tspan></text></g><g class="com.sun.star.drawing.TextShape" transform="matrix(.01 0 0 .01 -96.679 -2.135)"><rect class="BoundingBox" x="37879" y="12123" width="121" height="135" fill="none"/><text class="TextShape" transform="rotate(5.3,37882,12220)"><tspan class="TextParagraph" font-family="KozGoPr6Nular" font-size="104px" font-weight="400"><tspan class="TextPosition" x="37882" y="12220"><tspan fill="#ffffff">S</tspan></tspan></tspan></text></g><g class="com.sun.star.drawing.TextShape" transform="matrix(.01 0 0 .01 -96.679 -2.135)"><rect class="BoundingBox" x="37936" y="12129" width="123" height="136" fill="none"/><text class="TextShape" transform="rotate(6.1,37940,12225)"><tspan class="TextParagraph" font-family="KozGoPr6Nular" font-size="104px" font-weight="400"><tspan class="TextPosition" x="37940" y="12225"><tspan fill="#ffffff">c</tspan></tspan></tspan></text></g><g class="com.sun.star.drawing.TextShape" transform="matrix(.01 0 0 .01 -96.679 -2.135)"><rect class="BoundingBox" x="37987" y="12135" width="124" height="137" fill="none"/><text class="TextShape" transform="rotate(6.7,37991,12231)"><tspan class="TextParagraph" font-family="KozGoPr6Nular" font-size="104px" font-weight="400"><tspan class="TextPosition" x="37991" y="12231"><tspan fill="#ffffff">i</tspan></tspan></tspan></text></g><g class="com.sun.star.drawing.TextShape" transform="matrix(.01 0 0 .01 -96.679 -2.135)"><rect class="BoundingBox" x="38013" y="12138" width="126" height="138" fill="none"/><text class="TextShape" transform="rotate(7.4,38017,12234)"><tspan class="TextParagraph" font-family="KozGoPr6Nular" font-size="104px" font-weight="400"><tspan class="TextPosition" x="38017" y="12234"><tspan fill="#ffffff">e</tspan></tspan></tspan></text></g><g class="com.sun.star.drawing.TextShape" transform="matrix(.01 0 0 .01 -96.679 -2.135)"><rect class="BoundingBox" x="38071" y="12146" width="127" height="140" fill="none"/><text class="TextShape" transform="rotate(8.5,38076,12242)"><tspan class="TextParagraph" font-family="KozGoPr6Nular" font-size="104px" font-weight="400"><tspan class="TextPosition" x="38076" y="12242"><tspan fill="#ffffff">n</tspan></tspan></tspan></text></g><g class="com.sun.star.drawing.TextShape" transform="matrix(.01 0 0 .01 -96.679 -2.135)"><rect class="BoundingBox" x="38135" y="12156" width="129" height="142" fill="none"/><text class="TextShape" transform="rotate(9.6,38140,12252)"><tspan class="TextParagraph" font-family="KozGoPr6Nular" font-size="104px" font-weight="400"><tspan class="TextPosition" x="38140" y="12252"><tspan fill="#ffffff">c</tspan></tspan></tspan></text></g><g class="com.sun.star.drawing.ClosedBezierShape" transform="matrix(.01 0 0 .01 -96.679 -2.135)"><rect class="BoundingBox" x="35742" y="11893" width="153" height="200" fill="none"/><path d="m35770 11965c-26 49-25 100 1 114 26 15 68-12 95-60 26-47 25-99-1-113-27-15-69 12-95 59z" fill="#73d2f6"/><path d="m35770 11965c-26 49-25 100 1 114 26 15 68-12 95-60 26-47 25-99-1-113-27-15-69 12-95 59z" fill="none" stroke="#e3f6fd" stroke-width="17"/></g><g class="com.sun.star.drawing.ClosedBezierShape" transform="matrix(.01 0 0 .01 -96.679 -2.135)"><rect class="BoundingBox" x="35690" y="11677" width="194" height="157" fill="none"/><path d="m35704 11699c-14 32-17 68-10 103 8 37 62 42 79 11 12-22 35-37 51-56-25-11-50-21-74-31 1 18 10 35 11 52 2 21 12 38 32 43 17 5 42-2 49-20 6-14 25-26 35-42-27-7-54-14-82-21v23c0 57 88 57 88 0v-23c0-44-59-58-82-22 3-4 3-3-1 1-3 3-7 7-11 10-9 8-17 18-22 30 27 7 55 14 81 21-1-18-10-34-11-52-3-33-49-63-75-30-20 25-48 43-63 72 26 4 52 7 78 10-1-7 0-16 0-24 0-2 6-21 2-12 9-22 6-46-16-59-18-11-50-6-59 16z" fill="#fff"/></g><g class="com.sun.star.drawing.ClosedBezierShape" transform="matrix(.01 0 0 .01 -96.679 -2.135)"><rect class="BoundingBox" x="35297" y="11694" width="93" height="122" fill="none"/><path d="m35376 11719c-11-19-31-32-53-18-18 12-26 37-26 59 0 26 17 46 42 53 26 8 43-22 49-43 5-15-19-22-23-7-2 8-9 28-19 27-15-3-24-16-24-30-1-12 4-27 12-36 9-10 15-2 21 7 7 15 29 2 21-12z" fill="#fff"/></g><g class="com.sun.star.drawing.ClosedBezierShape" transform="matrix(.01 0 0 .01 -96.679 -2.135)"><rect class="BoundingBox" x="35363" y="11754" width="57" height="42" fill="none"/><path d="m35364 11770c10 27 32 34 52 9 9-13-12-26-22-13l-7-3c-5-15-29-9-23 7z" fill="#fff"/></g><g class="com.sun.star.drawing.ClosedBezierShape" transform="matrix(.01 0 0 .01 -96.679 -2.135)"><rect class="BoundingBox" x="35375" y="11724" width="168" height="57" fill="none"/><path d="m35390 11779c22-8 41-6 61-19h-12c33 22 68 10 98-12 12-10 0-31-13-22-22 17-47 30-73 12-3-3-9-2-12 0-18 12-36 10-55 17-15 5-9 29 6 24z" fill="#fff"/></g><g class="com.sun.star.drawing.ClosedBezierShape" transform="matrix(.01 0 0 .01 -96.679 -2.135)"><rect class="BoundingBox" x="37379" y="12390" width="270" height="274" fill="none"/><path d="m37597 12513c7 47-25 91-71 98-47 7-89-25-96-72-7-48 24-91 71-98 46-8 89 25 96 72z" fill="#4d4a4a"/><path d="m37597 12513c7 47-25 91-71 98-47 7-89-25-96-72-7-48 24-91 71-98 46-8 89 25 96 72z" fill="none" stroke="#4d4a4a" stroke-width="100"/></g><g class="com.sun.star.drawing.ClosedBezierShape" transform="matrix(.01 0 0 .01 -96.679 -2.135)"><rect class="BoundingBox" x="37076" y="12076" width="883" height="897" fill="none"/><path d="m37913 12463c33 223-117 431-336 464-218 34-423-119-456-342-33-222 118-430 336-464 219-34 423 119 456 342z" fill="#353132"/><path d="m37913 12463c33 223-117 431-336 464-218 34-423-119-456-342-33-222 118-430 336-464 219-34 423 119 456 342z" fill="none" stroke="#4d4a4a" stroke-width="80"/></g><g class="com.sun.star.drawing.LineShape" transform="matrix(.01 0 0 .01 -96.679 -2.135)"><g fill="none"><rect class="BoundingBox" x="37435" y="12156" width="168" height="773"/><path d="m37461 12160 115 764" stroke="#4d4a4a" stroke-width="51"/></g></g><g class="com.sun.star.drawing.LineShape" transform="matrix(.01 0 0 .01 -96.679 -2.135)"><g fill="none"><rect class="BoundingBox" x="37137" y="12453" width="760" height="170"/><path d="m37141 12596 751-117" stroke="#4d4a4a" stroke-width="51"/></g></g><g class="com.sun.star.drawing.LineShape" transform="matrix(.01 0 0 .01 -96.679 -2.135)"><g fill="none"><rect class="BoundingBox" x="37268" y="12222" width="492" height="655"/><path d="m37738 12237-449 624" stroke="#4d4a4a" stroke-width="51"/></g></g><g class="com.sun.star.drawing.LineShape" transform="matrix(.01 0 0 .01 -96.679 -2.135)"><g fill="none"><rect class="BoundingBox" x="37193" y="12295" width="647" height="500"/><path d="m37209 12316 614 457" stroke="#4d4a4a" stroke-width="51"/></g></g><g class="com.sun.star.drawing.ClosedBezierShape" transform="matrix(.01 0 0 .01 -96.679 -2.135)"><g fill="none"><rect class="BoundingBox" x="37441" y="12457" width="151" height="152"/><path d="m37459 12533c0 32 26 57 57 57 32 0 57-25 57-57 0-31-25-58-57-58-31 0-57 27-57 58z" stroke="#c11f21" stroke-linecap="round" stroke-linejoin="round" stroke-width="36"/></g></g><g class="com.sun.star.drawing.TextShape" transform="matrix(.01 0 0 .01 -96.679 -2.135)"><rect class="BoundingBox" x="38186" y="12165" width="132" height="144" fill="none"/><text class="TextShape" transform="rotate(10.9,38192,12260)"><tspan class="TextParagraph" font-family="KozGoPr6Nular" font-size="104px" font-weight="400"><tspan class="TextPosition" x="38192" y="12260"><tspan fill="#ffffff">e</tspan></tspan></tspan></text></g></g></svg>
