<?xml version="1.0" encoding="UTF-8"?>
<svg width="8.27mm" height="8.92mm" version="1.1" viewBox="0 0 8.27 8.92" xmlns="http://www.w3.org/2000/svg"><g transform="translate(-55.585 -101.28)"><g class="com.sun.star.drawing.PolyPolygonShape" transform="matrix(.01 0 0 .01 -308.65 55.534)"><rect class="BoundingBox" x="36424" y="4575" width="827" height="840" fill="none"/><path d="m37210 5374h-746v-759h746z" fill="#ee232c"/><path d="m37210 5374h-746v-759h746z" fill="none" stroke="#ee232c" stroke-linecap="round" stroke-linejoin="round" stroke-width="79"/></g><g class="com.sun.star.drawing.ClosedBezierShape" transform="matrix(.01 0 0 .01 -308.65 55.534)"><g fill="none"><rect class="BoundingBox" x="36510" y="4665" width="222" height="357"/><path d="m36528 4809v-94c0-18 13-32 30-32h138c10 0 17 8 17 18s-7 18-17 18h-125c-3 0-6 3-6 6v74c0 3 3 6 6 6h111c17 0 31 15 31 33v122c0 23-17 42-40 43h-128c-10 0-17-9-17-19s7-18 17-18h124c3 0 6-2 6-6v-112c0-3-3-6-6-6h-111c-17 0-30-15-30-33z" stroke="#fff" stroke-width="35"/></g></g><g class="com.sun.star.drawing.TextShape" transform="matrix(.01 0 0 .01 -308.65 55.534)"><rect class="BoundingBox" x="36504" y="4579" width="442" height="548" fill="none"/><text class="TextShape"><tspan class="TextParagraph" font-family="Mamelon" font-size="471px" font-weight="400"><tspan class="TextPosition" x="36504" y="5015"><tspan fill="#ffffff">5</tspan></tspan></tspan></text></g><g class="com.sun.star.drawing.TextShape" transform="matrix(.01 0 0 .01 -308.65 55.534)"><rect class="BoundingBox" x="36731" y="4785" width="265" height="387" fill="none"/><text class="TextShape"><tspan class="TextParagraph" font-family="'Noto Sans CJK HK', sans-serif" font-size="266px" font-weight="400"><tspan class="TextPosition" x="36731" y="5094"><tspan fill="#ffffff">さ</tspan></tspan></tspan></text></g><g class="com.sun.star.drawing.TextShape" transform="matrix(.01 0 0 .01 -308.65 55.534)"><rect class="BoundingBox" x="36947" y="4788" width="265" height="387" fill="none"/><text class="TextShape"><tspan class="TextParagraph" font-family="'Noto Sans CJK HK', sans-serif" font-size="266px" font-weight="400"><tspan class="TextPosition" x="36947" y="5097"><tspan fill="#ffffff">い</tspan></tspan></tspan></text></g><g class="com.sun.star.drawing.TextShape" transform="matrix(.01 0 0 .01 -308.65 55.534)"><rect class="BoundingBox" x="36600" y="5080" width="528" height="387" fill="none"/><text class="TextShape"><tspan class="TextParagraph" font-family="'Noto Sans CJK HK', sans-serif" font-size="266px" font-weight="400"><tspan class="TextPosition" x="36600" y="5389"><tspan fill="#ffffff">から</tspan></tspan></tspan></text></g></g></svg>
