<?xml version="1.0" encoding="UTF-8"?>
<svg width="15.8mm" height="13.97mm" version="1.1" viewBox="0 0 15.8 13.97" xmlns="http://www.w3.org/2000/svg"><g transform="translate(-127.98 -10.515)"><g class="com.sun.star.drawing.PolyPolygonShape" transform="matrix(.01 0 0 .01 -52.834 -2.135)"><rect class="BoundingBox" x="18081" y="1312" width="1279" height="1350" fill="none"/><path d="m18546 1333-49 453-395 217 409 188 80 449 301-337 446 61-223-396 196-412-441 92z" fill="#eea17b"/><path d="m18546 1333-49 453-395 217 409 188 80 449 301-337 446 61-223-396 196-412-441 92z" fill="none" stroke="#eea17b" stroke-linecap="round" stroke-linejoin="round" stroke-width="41"/></g><g class="com.sun.star.drawing.ClosedBezierShape" transform="matrix(.01 0 0 .01 -52.834 -2.135)"><rect class="BoundingBox" x="19217" y="1571" width="59" height="66" fill="none"/><path d="m19223 1603c0 15 10 27 22 27 14 0 24-12 24-27 0-14-10-26-24-26-12 0-22 12-22 26z" fill="#fff"/><path d="m19223 1603c0 15 10 27 22 27 14 0 24-12 24-27 0-14-10-26-24-26-12 0-22 12-22 26z" fill="none" stroke="#fff" stroke-width="11"/></g><g class="com.sun.star.drawing.OpenBezierShape" transform="matrix(.01 0 0 .01 -52.834 -2.135)"><g fill="none"><rect class="BoundingBox" x="19260" y="1265" width="401" height="344"/><path d="m19288 1546c0 1 349-428 358-201 0 0 22 153-372 249" stroke="#b2b1b1" stroke-linecap="round" stroke-width="27"/></g></g><g class="com.sun.star.drawing.ClosedBezierShape" transform="matrix(.01 0 0 .01 -52.834 -2.135)"><rect class="BoundingBox" x="19264" y="1544" width="60" height="19" fill="none"/><path d="m19272 1557c10-6 33-6 44-6 2 0 10-4 4-4-16 0-31 5-46 11l1 4c11 0 21-5 32-6v-3c-4 0-27 6-8 4l2-4c-24 8-4 3 1 1 3-1 7-4 2-4-5 1-9 1-15 2 7-1 14-2 20-3v-4c-10 2-21 5-31 7 8-2 18-2 27-4 2 0 8-4 2-4l-4 1c-3 0-10 4-4 4l4-1 3-4c-13 3-26 4-38 10-4 2-1 3 2 3 13-3 27-6 40-9 4-1 6-4 1-3-13 2-26 4-38 10l1 3c8-1 16-2 26-3l1-4c-7 2-15 4-21 7-4 3-1 4 2 4 6-1 13-4 20-5 2-1 6-5 1-4-7 0-13 2-20 4-4 2-3 5 1 5 9-1 16-4 24-6 4-1 6-4 0-4-5 1-8 1-13 3-18 3 18-4 21-4l4-4c-18 0-40 0-55 9-4 3 6 2 7 1z" fill="#e28b65"/></g><g class="com.sun.star.drawing.ClosedBezierShape" transform="matrix(.01 0 0 .01 -52.834 -2.135)"><rect class="BoundingBox" x="19266" y="1539" width="53" height="17" fill="none"/><path d="m19271 1554c15-3 29-3 43-8 4-2 5-7-1-7-11 1-23 3-35 5-6 1-8 8 0 8 10-1 20-3 30-4l1-8c-12 2-24 5-37 6v7c13-2 24-5 36-7 4 0 8-6 2-7h-5c-5 0-10 6-4 7h6l2-7c-13 2-25 5-38 7-5 2-5 8 0 8 13-2 25-4 37-6 5-2 8-9 1-8-10 1-20 4-31 4v8c11-2 23-4 35-6l-1-6c-14 4-28 4-43 8-5 2-4 8 2 6z" fill="#e28b65"/></g><g class="com.sun.star.drawing.ClosedBezierShape" transform="matrix(.01 0 0 .01 -52.834 -2.135)"><rect class="BoundingBox" x="19268" y="1544" width="16" height="7" fill="none"/><path d="m19271 1549 6-1 6-4-7 1h-2c-7 4 3 3 5 2h2-7v1l5-4-5 1c-4 0-9 5-3 4z" fill="#e28b65"/></g><g class="com.sun.star.drawing.ClosedBezierShape" transform="matrix(.01 0 0 .01 -52.834 -2.135)"><rect class="BoundingBox" x="19266" y="1536" width="58" height="16" fill="none"/><path d="m19271 1550c12-4 32-9 44-6 3 1 11-6 5-7-15-3-34 2-51 7-5 2-4 8 2 6z" fill="#e28b65"/></g><g class="com.sun.star.drawing.ClosedBezierShape" transform="matrix(.01 0 0 .01 -52.834 -2.135)"><rect class="BoundingBox" x="19272" y="1535" width="52" height="15" fill="none"/><path d="m19276 1548c11 0 30-12 38-5l9-3c-13-12-31 1-46 2-4 0-8 7-1 6z" fill="#e28b65"/></g><g class="com.sun.star.drawing.ClosedBezierShape" transform="matrix(.01 0 0 .01 -52.834 -2.135)"><rect class="BoundingBox" x="19269" y="1538" width="31" height="12" fill="none"/><path d="m19275 1548c6-2 12-3 20-5 5-2 4-6-1-5-7 3-14 4-20 6s-5 6 1 4z" fill="#e28b65"/></g><g class="com.sun.star.drawing.ClosedBezierShape" transform="matrix(.01 0 0 .01 -52.834 -2.135)"><rect class="BoundingBox" x="19270" y="1537" width="30" height="12" fill="none"/><path d="m19275 1547c6-2 12-4 19-5 4 0 8-5 2-4-8 1-15 3-22 5-5 2-5 5 1 4z" fill="#e28b65"/></g><g class="com.sun.star.drawing.ClosedBezierShape" transform="matrix(.01 0 0 .01 -52.834 -2.135)"><rect class="BoundingBox" x="19273" y="1536" width="36" height="12" fill="none"/><path d="m19275 1547c9 0 18-4 27-6 4-1 8-7 2-4-8 1-17 4-25 5-3 0-10 6-4 5z" fill="#e28b65"/></g><g class="com.sun.star.drawing.ClosedBezierShape" transform="matrix(.01 0 0 .01 -52.834 -2.135)"><rect class="BoundingBox" x="19279" y="1539" width="13" height="8" fill="none"/><path d="m19287 1540h-1c-4 0-11 6-5 6h1c4 0 12-6 5-6z" fill="#e28b65"/></g><g class="com.sun.star.drawing.ClosedBezierShape" transform="matrix(.01 0 0 .01 -52.834 -2.135)"><rect class="BoundingBox" x="19272" y="1536" width="35" height="13" fill="none"/><path d="m19276 1546c9-2 16-4 24-6 4-1 8-6 1-4-8 1-16 3-26 5-5 3-4 7 1 5z" fill="#e28b65"/></g><g class="com.sun.star.drawing.ClosedBezierShape" transform="matrix(.01 0 0 .01 -52.834 -2.135)"><rect class="BoundingBox" x="19276" y="1538" width="27" height="10" fill="none"/><path d="m19285 1545c3-3 8-3 11-3 4-1 8-5 2-4-7 1-15 1-21 5-4 4 5 3 8 2z" fill="#e28b65"/></g><g class="com.sun.star.drawing.ClosedBezierShape" transform="matrix(.01 0 0 .01 -52.834 -2.135)"><rect class="BoundingBox" x="19276" y="1538" width="22" height="8" fill="none"/><path d="m19284 1542 5-1c3 0 12-5 5-3-7 1-13 2-18 6z" fill="#e28b65"/></g><g class="com.sun.star.drawing.ClosedBezierShape" transform="matrix(.01 0 0 .01 -52.834 -2.135)"><rect class="BoundingBox" x="19272" y="1535" width="44" height="13" fill="none"/><path d="m19277 1546c10-3 20-6 31-6 3 0 10-5 4-5-12 1-25 3-36 7-6 1-5 6 1 4z" fill="#e28b65"/></g><g class="com.sun.star.drawing.ClosedBezierShape" transform="matrix(.01 0 0 .01 -52.834 -2.135)"><rect class="BoundingBox" x="19276" y="1535" width="38" height="13" fill="none"/><path d="m19281 1546c8-3 16-5 25-6 3 0 10-5 4-5-11 1-20 4-30 6-6 1-5 6 1 5z" fill="#e28b65"/></g><g class="com.sun.star.drawing.ClosedBezierShape" transform="matrix(.01 0 0 .01 -52.834 -2.135)"><rect class="BoundingBox" x="19281" y="1534" width="32" height="13" fill="none"/><path d="m19289 1545c5-5 12-5 18-6 4 0 8-6 1-4-9 1-17 2-25 7-5 4 3 4 6 3z" fill="#e28b65"/></g><g class="com.sun.star.drawing.ClosedBezierShape" transform="matrix(.01 0 0 .01 -52.834 -2.135)"><rect class="BoundingBox" x="19282" y="1535" width="29" height="9" fill="none"/><path d="m19289 1542 15-3c4-1 9-5 2-4-8 2-14 3-20 5-7 2-1 3 3 2z" fill="#e28b65"/></g><g class="com.sun.star.drawing.ClosedBezierShape" transform="matrix(.01 0 0 .01 -52.834 -2.135)"><rect class="BoundingBox" x="19279" y="1535" width="30" height="13" fill="none"/><path d="m19283 1546c6-3 13-5 20-6 4-1 7-7 1-5-7 1-15 3-22 5-5 2-4 8 1 6z" fill="#e28b65"/></g></g></svg>
