<?xml version="1.0" encoding="UTF-8" standalone="no"?>
<!-- Created with Inkscape (http://www.inkscape.org/) -->

<svg
   xmlns:dc="http://purl.org/dc/elements/1.1/"
   xmlns:cc="http://creativecommons.org/ns#"
   xmlns:rdf="http://www.w3.org/1999/02/22-rdf-syntax-ns#"
   xmlns:svg="http://www.w3.org/2000/svg"
   xmlns="http://www.w3.org/2000/svg"
   xmlns:sodipodi="http://sodipodi.sourceforge.net/DTD/sodipodi-0.dtd"
   xmlns:inkscape="http://www.inkscape.org/namespaces/inkscape"
   width="33.633148mm"
   height="27.774969mm"
   viewBox="0 0 33.633148 27.774969"
   version="1.1"
   id="svg22028"
   inkscape:version="0.92.4 5da689c313, 2019-01-14"
   sodipodi:docname="10.svg">
  <defs
     id="defs22022" />
  <sodipodi:namedview
     id="base"
     pagecolor="#ffffff"
     bordercolor="#666666"
     borderopacity="1.0"
     inkscape:pageopacity="0.0"
     inkscape:pageshadow="2"
     inkscape:zoom="1.4"
     inkscape:cx="2.6645711"
     inkscape:cy="72.533907"
     inkscape:document-units="mm"
     inkscape:current-layer="layer1"
     showgrid="false"
     inkscape:window-width="1366"
     inkscape:window-height="704"
     inkscape:window-x="0"
     inkscape:window-y="27"
     inkscape:window-maximized="1" />
  <metadata
     id="metadata22025">
    <rdf:RDF>
      <cc:Work
         rdf:about="">
        <dc:format>image/svg+xml</dc:format>
        <dc:type
           rdf:resource="http://purl.org/dc/dcmitype/StillImage" />
        <dc:title></dc:title>
      </cc:Work>
    </rdf:RDF>
  </metadata>
  <g
     inkscape:label="レイヤー 1"
     inkscape:groupmode="layer"
     id="layer1"
     transform="translate(-107.15961,-69.177992)">
    <g
       transform="matrix(0.01,0,0,0.01,-353.39724,-50.977039)"
       id="g4734"
       class="com.sun.star.drawing.OpenBezierShape">
      <g
         id="id318">
        <rect
           style="fill:none;stroke:none"
           id="rect4729"
           height="1605"
           width="1597"
           y="13188"
           x="46562"
           class="BoundingBox" />
        <path
           style="fill:none;stroke:#b2b1b1;stroke-width:46;stroke-linecap:round;stroke-linejoin:round"
           inkscape:connector-curvature="0"
           id="path4731"
           d="m 46585,14769 c 478,-1027 1171,-1711 1550,-1528" />
      </g>
    </g>
    <g
       transform="matrix(0.01,0,0,0.01,-353.39724,-50.977039)"
       id="g4743"
       class="com.sun.star.drawing.ClosedBezierShape">
      <g
         id="id319">
        <rect
           style="fill:none;stroke:none"
           id="rect4736"
           height="1206"
           width="1205"
           y="12396"
           x="48214"
           class="BoundingBox" />
        <path
           style="fill:#fcd6ed;stroke:none"
           inkscape:connector-curvature="0"
           id="path4738"
           d="m 49393,13035 c -19,319 -293,562 -613,541 -319,-20 -562,-295 -542,-614 19,-319 293,-561 612,-541 320,20 563,295 543,614 z" />
        <path
           style="fill:none;stroke:#b2b1b1;stroke-width:46;stroke-linecap:round;stroke-linejoin:round"
           inkscape:connector-curvature="0"
           id="path4740"
           d="m 49393,13035 c -19,319 -293,562 -613,541 -319,-20 -562,-295 -542,-614 19,-319 293,-561 612,-541 320,20 563,295 543,614 z" />
      </g>
    </g>
    <g
       transform="matrix(0.01,0,0,0.01,-353.39724,-50.977039)"
       id="g4750"
       class="com.sun.star.drawing.OpenBezierShape">
      <g
         id="id320">
        <rect
           style="fill:none;stroke:none"
           id="rect4745"
           height="1102"
           width="599"
           y="13681"
           x="46056"
           class="BoundingBox" />
        <path
           style="fill:none;stroke:#b2b1b1;stroke-width:46;stroke-linecap:round;stroke-linejoin:round"
           inkscape:connector-curvature="0"
           id="path4747"
           d="m 46079,13704 c 414,120 645,593 516,1055" />
      </g>
    </g>
    <path
       style="fill:none;stroke:#f9f270;stroke-width:0.23000002;stroke-linecap:round;stroke-linejoin:round"
       inkscape:connector-curvature="0"
       id="path4756"
       d="m 129.97281,73.212979 -1.84,0.01 -0.97,1.65 -0.66,-1.89 -1.79,-0.55 1.44,-1.17 -0.13,-1.97 1.55,1.15 1.71,-0.67 -0.49,1.88 z" />
    <g
       transform="matrix(0.01,0,0,0.01,-353.39724,-50.977039)"
       id="g4766"
       class="com.sun.star.drawing.OpenBezierShape">
      <g
         id="id322">
        <rect
           style="fill:none;stroke:none"
           id="rect4761"
           height="461"
           width="449"
           y="12522"
           x="48836"
           class="BoundingBox" />
        <path
           style="fill:none;stroke:#ffffff;stroke-width:87;stroke-linecap:round;stroke-linejoin:round"
           inkscape:connector-curvature="0"
           id="path4763"
           d="m 49238,12938 c 22,-95 -118,-375 -358,-372" />
      </g>
    </g>
    <g
       transform="matrix(0.01,0,0,0.01,-353.39724,-50.977039)"
       id="g4773"
       class="com.sun.star.drawing.OpenBezierShape">
      <g
         id="id323">
        <rect
           style="fill:none;stroke:none"
           id="rect4768"
           height="283"
           width="226"
           y="13087"
           x="49060"
           class="BoundingBox" />
        <path
           style="fill:none;stroke:#ffffff;stroke-width:87;stroke-linecap:round;stroke-linejoin:round"
           inkscape:connector-curvature="0"
           id="path4770"
           d="m 49104,13325 c 22,6 148,-65 136,-194" />
      </g>
    </g>
  </g>
</svg>
