<?xml version="1.0" encoding="UTF-8" standalone="no"?>
<!-- Created with Inkscape (http://www.inkscape.org/) -->

<svg
   xmlns:dc="http://purl.org/dc/elements/1.1/"
   xmlns:cc="http://creativecommons.org/ns#"
   xmlns:rdf="http://www.w3.org/1999/02/22-rdf-syntax-ns#"
   xmlns:svg="http://www.w3.org/2000/svg"
   xmlns="http://www.w3.org/2000/svg"
   xmlns:sodipodi="http://sodipodi.sourceforge.net/DTD/sodipodi-0.dtd"
   xmlns:inkscape="http://www.inkscape.org/namespaces/inkscape"
   width="27.151033mm"
   height="32.830002mm"
   viewBox="0 0 27.151033 32.830002"
   version="1.1"
   id="svg23643"
   inkscape:version="0.92.4 5da689c313, 2019-01-14"
   sodipodi:docname="12.svg">
  <defs
     id="defs23637" />
  <sodipodi:namedview
     id="base"
     pagecolor="#ffffff"
     bordercolor="#666666"
     borderopacity="1.0"
     inkscape:pageopacity="0.0"
     inkscape:pageshadow="2"
     inkscape:zoom="0.35"
     inkscape:cx="-130.11955"
     inkscape:cy="-235.10191"
     inkscape:document-units="mm"
     inkscape:current-layer="layer1"
     showgrid="false"
     inkscape:window-width="1366"
     inkscape:window-height="704"
     inkscape:window-x="0"
     inkscape:window-y="27"
     inkscape:window-maximized="1" />
  <metadata
     id="metadata23640">
    <rdf:RDF>
      <cc:Work
         rdf:about="">
        <dc:format>image/svg+xml</dc:format>
        <dc:type
           rdf:resource="http://purl.org/dc/dcmitype/StillImage" />
        <dc:title></dc:title>
      </cc:Work>
    </rdf:RDF>
  </metadata>
  <g
     inkscape:label="レイヤー 1"
     inkscape:groupmode="layer"
     id="layer1"
     transform="translate(-18.174487,-53.799286)">
    <g
       transform="matrix(0.01,0,0,0.01,-546.90448,39.889286)"
       id="g8998"
       class="com.sun.star.drawing.ClosedBezierShape">
      <g
         id="id914">
        <rect
           style="fill:none;stroke:none"
           id="rect8991"
           height="2091"
           width="1922"
           y="1391"
           x="57301"
           class="BoundingBox" />
        <path
           style="fill:#cceffc;stroke:none"
           inkscape:connector-curvature="0"
           id="path8993"
           d="m 59191,2554 c -69,562 -543,963 -1056,898 -513,-65 -873,-573 -804,-1133 69,-561 541,-963 1054,-898 514,66 875,573 806,1133 z" />
        <path
           style="fill:none;stroke:#b2b1b1;stroke-width:44;stroke-linejoin:miter"
           inkscape:connector-curvature="0"
           id="path8995"
           d="m 59191,2554 c -69,562 -543,963 -1056,898 -513,-65 -873,-573 -804,-1133 69,-561 541,-963 1054,-898 514,66 875,573 806,1133 z" />
      </g>
    </g>
    <g
       transform="matrix(0.01,0,0,0.01,-546.90448,39.889286)"
       id="g9005"
       class="com.sun.star.drawing.ClosedBezierShape">
      <g
         id="id915">
        <rect
           style="fill:none;stroke:none"
           id="rect9000"
           height="1144"
           width="552"
           y="1660"
           x="58394"
           class="BoundingBox" />
        <path
           style="fill:#ffffff;stroke:none"
           inkscape:connector-curvature="0"
           id="path9002"
           d="m 58436,1834 c 296,202 382,516 295,856 -29,113 145,161 174,48 110,-423 -13,-811 -377,-1062 -97,-66 -189,92 -92,158 z" />
      </g>
    </g>
    <g
       transform="matrix(0.01,0,0,0.01,-546.90448,39.889286)"
       id="g9012"
       class="com.sun.star.drawing.ClosedBezierShape">
      <g
         id="id916">
        <rect
           style="fill:none;stroke:none"
           id="rect9007"
           height="377"
           width="456"
           y="2905"
           x="58249"
           class="BoundingBox" />
        <path
           style="fill:#ffffff;stroke:none"
           inkscape:connector-curvature="0"
           id="path9009"
           d="m 58531,2946 c -44,65 -152,127 -215,153 -46,19 -78,60 -63,113 11,43 65,82 111,63 120,-49 250,-128 324,-237 65,-98 -93,-189 -157,-92 z" />
      </g>
    </g>
    <g
       transform="matrix(0.01,0,0,0.01,-546.90448,39.889286)"
       id="g9021"
       class="com.sun.star.drawing.ClosedBezierShape">
      <g
         id="id917">
        <rect
           style="fill:none;stroke:none"
           id="rect9014"
           height="1147"
           width="1157"
           y="3527"
           x="56508"
           class="BoundingBox" />
        <path
           style="fill:#cceffc;stroke:none"
           inkscape:connector-curvature="0"
           id="path9016"
           d="m 57637,4170 c -37,302 -313,514 -619,476 -304,-39 -521,-314 -484,-616 38,-302 314,-515 619,-476 305,38 521,315 484,616 z" />
        <path
           style="fill:none;stroke:#b2b1b1;stroke-width:44;stroke-linejoin:miter"
           inkscape:connector-curvature="0"
           id="path9018"
           d="m 57637,4170 c -37,302 -313,514 -619,476 -304,-39 -521,-314 -484,-616 38,-302 314,-515 619,-476 305,38 521,315 484,616 z" />
      </g>
    </g>
    <g
       transform="matrix(0.01,0,0,0.01,-546.90448,39.889286)"
       id="g9028"
       class="com.sun.star.drawing.ClosedBezierShape">
      <g
         id="id918">
        <rect
           style="fill:none;stroke:none"
           id="rect9023"
           height="191"
           width="639"
           y="3617"
           x="56742"
           class="BoundingBox" />
        <path
           style="fill:#ffffff;stroke:none"
           inkscape:connector-curvature="0"
           id="path9025"
           d="m 56786,3784 c 176,-161 382,-150 549,15 24,24 60,-13 36,-36 -188,-186 -425,-195 -621,-15 -25,22 12,59 36,36 z" />
      </g>
    </g>
    <g
       transform="matrix(0.01,0,0,0.01,-546.90448,39.889286)"
       id="g9035"
       class="com.sun.star.drawing.ClosedBezierShape">
      <g
         id="id919">
        <rect
           style="fill:none;stroke:none"
           id="rect9030"
           height="217"
           width="120"
           y="3862"
           x="57450"
           class="BoundingBox" />
        <path
           style="fill:#ffffff;stroke:none"
           inkscape:connector-curvature="0"
           id="path9032"
           d="m 57459,3905 c 21,18 41,37 51,65 10,26 8,55 7,82 -1,33 50,33 51,0 3,-76 -13,-134 -73,-184 -25,-21 -62,15 -36,37 z" />
      </g>
    </g>
  </g>
</svg>
