<?xml version="1.0" encoding="UTF-8"?>
<svg width="23.14mm" height="35.86mm" version="1.1" viewBox="0 0 23.14 35.86" xmlns="http://www.w3.org/2000/svg"><g transform="translate(-172.84 -41.585)"><g class="com.sun.star.drawing.PolyPolygonShape" transform="matrix(.01 0 0 .01 -100.46 25.835)"><rect class="BoundingBox" x="27691" y="3351" width="1865" height="691" fill="none"/><path d="m28440 3375 1091 355-704 287-1111-350z" fill="#f9a9a9"/><path d="m28440 3375 1091 355-704 287-1111-350z" fill="none" stroke="#b2b1b1" stroke-linecap="round" stroke-linejoin="round" stroke-width="48"/></g><g class="com.sun.star.drawing.PolyPolygonShape" transform="matrix(.01 0 0 .01 -100.46 25.835)"><rect class="BoundingBox" x="27362" y="3640" width="1483" height="1514" fill="none"/><path d="m27386 4780 1112 349 322-1115-1110-350z" fill="#fde193"/><path d="m27386 4780 1112 349 322-1115-1110-350z" fill="none" stroke="#b2b1b1" stroke-linecap="round" stroke-linejoin="round" stroke-width="48"/></g><g class="com.sun.star.drawing.PolyPolygonShape" transform="matrix(.01 0 0 .01 -100.46 25.835)"><rect class="BoundingBox" x="28477" y="3705" width="1080" height="1456" fill="none"/><path d="m28501 5135 693-303 338-1103-708 292z" fill="#d6f1f0"/><path d="m28501 5135 693-303 338-1103-708 292z" fill="none" stroke="#b2b1b1" stroke-linecap="round" stroke-linejoin="round" stroke-width="48"/></g><g class="com.sun.star.drawing.LineShape" transform="matrix(.01 0 0 .01 -100.46 25.835)"><g fill="none"><rect class="BoundingBox" x="28065" y="3471" width="740" height="348"/><path d="m28780 3495-691 299" stroke="#b2b1b1" stroke-linecap="round" stroke-linejoin="round" stroke-width="48"/></g></g><g class="com.sun.star.drawing.LineShape" transform="matrix(.01 0 0 .01 -100.46 25.835)"><g fill="none"><rect class="BoundingBox" x="28448" y="3606" width="740" height="348"/><path d="m29163 3630-691 299" stroke="#b2b1b1" stroke-linecap="round" stroke-linejoin="round" stroke-width="48"/></g></g><g class="com.sun.star.drawing.LineShape" transform="matrix(.01 0 0 .01 -100.46 25.835)"><g fill="none"><rect class="BoundingBox" x="27727" y="3769" width="388" height="1147"/><path d="m28090 3793-339 1098" stroke="#b2b1b1" stroke-linecap="round" stroke-linejoin="round" stroke-width="48"/></g></g><g class="com.sun.star.drawing.LineShape" transform="matrix(.01 0 0 .01 -100.46 25.835)"><g fill="none"><rect class="BoundingBox" x="28114" y="3904" width="385" height="1133"/><path d="m28474 3928-336 1084" stroke="#b2b1b1" stroke-linecap="round" stroke-linejoin="round" stroke-width="48"/></g></g><g class="com.sun.star.drawing.LineShape" transform="matrix(.01 0 0 .01 -100.46 25.835)"><g fill="none"><rect class="BoundingBox" x="27569" y="4034" width="1160" height="400"/><path d="m27593 4058 1111 351" stroke="#b2b1b1" stroke-linecap="round" stroke-linejoin="round" stroke-width="48"/></g></g><g class="com.sun.star.drawing.LineShape" transform="matrix(.01 0 0 .01 -100.46 25.835)"><g fill="none"><rect class="BoundingBox" x="27451" y="4441" width="1160" height="400"/><path d="m27475 4465 1111 351" stroke="#b2b1b1" stroke-linecap="round" stroke-linejoin="round" stroke-width="48"/></g></g><g class="com.sun.star.drawing.LineShape" transform="matrix(.01 0 0 .01 -100.46 25.835)"><g fill="none"><rect class="BoundingBox" x="27994" y="3526" width="1155" height="401"/><path d="m28018 3550 1106 352" stroke="#b2b1b1" stroke-linecap="round" stroke-linejoin="round" stroke-width="48"/></g></g><g class="com.sun.star.drawing.LineShape" transform="matrix(.01 0 0 .01 -100.46 25.835)"><g fill="none"><rect class="BoundingBox" x="28238" y="3428" width="1130" height="410"/><path d="m28262 3452 1081 361" stroke="#b2b1b1" stroke-linecap="round" stroke-linejoin="round" stroke-width="48"/></g></g><g class="com.sun.star.drawing.LineShape" transform="matrix(.01 0 0 .01 -100.46 25.835)"><g fill="none"><rect class="BoundingBox" x="28767" y="3877" width="382" height="1142"/><path d="m29124 3901-333 1093" stroke="#b2b1b1" stroke-linecap="round" stroke-linejoin="round" stroke-width="48"/></g></g><g class="com.sun.star.drawing.LineShape" transform="matrix(.01 0 0 .01 -100.46 25.835)"><g fill="none"><rect class="BoundingBox" x="28998" y="3788" width="370" height="1143"/><path d="m29343 3812-321 1094" stroke="#b2b1b1" stroke-linecap="round" stroke-linejoin="round" stroke-width="48"/></g></g><g class="com.sun.star.drawing.LineShape" transform="matrix(.01 0 0 .01 -100.46 25.835)"><g fill="none"><rect class="BoundingBox" x="28679" y="4092" width="757" height="342"/><path d="m28703 4409 708-293" stroke="#b2b1b1" stroke-linecap="round" stroke-linejoin="round" stroke-width="48"/></g></g><g class="com.sun.star.drawing.LineShape" transform="matrix(.01 0 0 .01 -100.46 25.835)"><g fill="none"><rect class="BoundingBox" x="28561" y="4476" width="758" height="365"/><path d="m28585 4816 709-316" stroke="#b2b1b1" stroke-linecap="round" stroke-linejoin="round" stroke-width="48"/></g></g><g class="com.sun.star.drawing.PolyPolygonShape" transform="matrix(.01 0 0 .01 -100.46 25.835)"><g fill="none"><rect class="BoundingBox" x="27330" y="1575" width="1092" height="1107"/><path d="m27773 2089-420 184 59 140 420-184 181 428 146-65-181-427 420-184-59-139-420 184-181-427-146 63z" stroke="#f25a52" stroke-width="35"/></g></g><g class="com.sun.star.drawing.PolyPolygonShape" transform="matrix(.01 0 0 .01 -100.46 25.835)"><g fill="none"><rect class="BoundingBox" x="28543" y="2743" width="1101" height="190"/><path d="m28561 2914h1064v-153h-1064z" stroke="#a4d3f2" stroke-width="35"/></g></g></g></svg>
