<?xml version="1.0" encoding="UTF-8"?>
<svg width="25.39mm" height="24.97mm" version="1.1" viewBox="0 0 25.39 24.97" xmlns="http://www.w3.org/2000/svg"><g transform="translate(-133.2 -125.76)"><g class="com.sun.star.drawing.PolyPolygonShape" transform="matrix(.01 0 0 .01 -136.49 63.965)"><rect class="BoundingBox" x="26969" y="6180" width="2539" height="2497" fill="none"/><path d="m27411 6675-154 267 261 965-282-658-137-64-92 131 489 954-452-605-49 106 611 681 193 7 168 127 120-46 162 110 141-26 904-673-15-166-163 55-730 652 1074-1272 21-404-458 136-673 1290 338-1110-179-111-87 149-200 1010 224-1602-276-372-378 304 190 1597-218-868-92-89-44 131 286 847z" fill="#c9ebf9"/><path d="m27411 6675-154 267 261 965-282-658-137-64-92 131 489 954-452-605-49 106 611 681 193 7 168 127 120-46 162 110 141-26 904-673-15-166-163 55-730 652 1074-1272 21-404-458 136-673 1290 338-1110-179-111-87 149-200 1010 224-1602-276-372-378 304 190 1597-218-868-92-89-44 131 286 847z" fill="none" stroke="#b2b1b1" stroke-linecap="round" stroke-linejoin="round" stroke-width="51"/></g></g></svg>
