<?xml version="1.0" encoding="UTF-8"?>
<svg width="23.41mm" height="29.19mm" version="1.1" viewBox="0 0 23.41 29.19" xmlns="http://www.w3.org/2000/svg"><g transform="translate(-10.265 -269.93)"><g class="com.sun.star.drawing.OpenBezierShape" transform="matrix(.01 0 0 .01 -423.97 -26.222)"><g fill="none"><rect class="BoundingBox" x="28875" y="16674" width="774" height="2291"/><path d="m29459 16693s22 124-27 146c0 0-105 7-136 142 0 0-27 106 42 155l-19 68c-285 975-265 1035-265 1035-13 241-160 689-160 689l49 17c112-441 233-660 233-660 75-79 303-1034 303-1034l20-68c69 13 120-108 120-108 35-89-36-191-36-191-23-40 43-143 43-143" stroke="#b2b1b1" stroke-linecap="round" stroke-linejoin="round" stroke-width="37"/></g></g><g class="com.sun.star.drawing.OpenBezierShape" transform="matrix(.01 0 0 .01 -423.97 -26.222)"><g fill="none"><rect class="BoundingBox" x="29163" y="18059" width="112" height="56"/><path d="m29255 18093c-1 5-33-2-73-15" stroke="#b2b1b1" stroke-linecap="round" stroke-width="37"/></g></g><g class="com.sun.star.drawing.OpenBezierShape" transform="matrix(.01 0 0 .01 -423.97 -26.222)"><g fill="none"><rect class="BoundingBox" x="29349" y="17380" width="106" height="54"/><path d="m29435 17412c-1 5-32-1-67-13" stroke="#b2b1b1" stroke-linecap="round" stroke-width="37"/></g></g><g class="com.sun.star.drawing.OpenBezierShape" transform="matrix(.01 0 0 .01 -423.97 -26.222)"><g fill="none"><rect class="BoundingBox" x="29339" y="17495" width="88" height="54"/><path d="m29407 17529s-23-6-49-15" stroke="#b2b1b1" stroke-linecap="round" stroke-width="37"/></g></g><g class="com.sun.star.drawing.PolyLineShape" transform="matrix(.01 0 0 .01 -423.97 -26.222)"><rect class="BoundingBox" x="29372" y="17576" width="39" height="39" fill="none"/></g><g class="com.sun.star.drawing.OpenBezierShape" transform="matrix(.01 0 0 .01 -423.97 -26.222)"><g fill="none"><rect class="BoundingBox" x="29306" y="17611" width="93" height="49"/><path d="m29379 17639c-1 3-25 0-54-9" stroke="#b2b1b1" stroke-linecap="round" stroke-width="37"/></g></g><g class="com.sun.star.drawing.OpenBezierShape" transform="matrix(.01 0 0 .01 -423.97 -26.222)"><g fill="none"><rect class="BoundingBox" x="29277" y="17732" width="88" height="46"/><path d="m29345 17754c-1 7-23 5-49-3" stroke="#b2b1b1" stroke-linecap="round" stroke-width="37"/></g></g><g class="com.sun.star.drawing.OpenBezierShape" transform="matrix(.01 0 0 .01 -423.97 -26.222)"><g fill="none"><rect class="BoundingBox" x="29249" y="17849" width="85" height="45"/><path d="m29314 17870c-1 6-22 5-46-2" stroke="#b2b1b1" stroke-linecap="round" stroke-width="37"/></g></g><g class="com.sun.star.drawing.OpenBezierShape" transform="matrix(.01 0 0 .01 -423.97 -26.222)"><g fill="none"><rect class="BoundingBox" x="29221" y="17950" width="83" height="48"/><path d="m29284 17976c-1 4-20 1-44-7" stroke="#b2b1b1" stroke-linecap="round" stroke-width="37"/></g></g><g class="com.sun.star.drawing.ClosedBezierShape" transform="matrix(.01 0 0 .01 -423.97 -26.222)"><rect class="BoundingBox" x="29428" y="16046" width="419" height="739" fill="none"/><path d="m29453 16725c-25 8 31-93 28-146 0 0-35-206-32-267 0 0-12-154 103-222 0 0 152-81 241 46 28 41 65 152-14 268 0 0-111 174-122 223-2 4-40 124 14 138 0 0-256-27-218-40z" fill="#f792ad"/><path d="m29453 16725c-25 8 31-93 28-146 0 0-35-206-32-267 0 0-12-154 103-222 0 0 152-81 241 46 28 41 65 152-14 268 0 0-111 174-122 223-2 4-40 124 14 138 0 0-256-27-218-40z" fill="none" stroke="#b2b1b1" stroke-width="37"/></g><g class="com.sun.star.drawing.ClosedBezierShape" transform="matrix(.01 0 0 .01 -423.97 -26.222)"><rect class="BoundingBox" x="29341" y="16697" width="360" height="166" fill="none"/><path d="m29647 16741s184 179-135 101c0 0-336-90-63-145z" fill="#f792ad"/></g><g class="com.sun.star.drawing.OpenBezierShape" transform="matrix(.01 0 0 .01 -423.97 -26.222)"><g fill="none"><rect class="BoundingBox" x="29323" y="16678" width="397" height="204"/><path d="m29647 16741s184 179-135 101c0 0-336-90-63-145" stroke="#b2b1b1" stroke-linecap="round" stroke-linejoin="round" stroke-width="37"/></g></g><g class="com.sun.star.drawing.ClosedBezierShape" transform="matrix(.01 0 0 .01 -423.97 -26.222)"><rect class="BoundingBox" x="27506" y="17117" width="931" height="916" fill="none"/><path d="m28417 17574c0 243-200 440-447 440-246 0-446-197-446-440 0-242 200-439 446-439 247 0 447 197 447 439z" fill="#e5f2f7"/><path d="m28417 17574c0 243-200 440-447 440-246 0-446-197-446-440 0-242 200-439 446-439 247 0 447 197 447 439z" fill="none" stroke="#b2b1b1" stroke-width="36"/></g><g class="com.sun.star.drawing.OpenBezierShape" transform="matrix(.01 0 0 .01 -423.97 -26.222)"><g fill="none"><rect class="BoundingBox" x="28045" y="17240" width="284" height="510"/><path d="m28066 17261s348 96 207 467" stroke="#fff" stroke-linecap="round" stroke-width="41"/></g></g><g class="com.sun.star.drawing.OpenBezierShape" transform="matrix(.01 0 0 .01 -423.97 -26.222)"><g fill="none"><rect class="BoundingBox" x="28122" y="17780" width="143" height="144"/><path d="m28243 17801s-26 92-100 101" stroke="#fff" stroke-linecap="round" stroke-width="41"/></g></g><g class="com.sun.star.drawing.ClosedBezierShape" transform="matrix(.01 0 0 .01 -423.97 -26.222)"><rect class="BoundingBox" x="28429" y="17787" width="499" height="506" fill="none"/><path d="m28909 18040c0 130-103 234-231 234s-231-104-231-234 103-235 231-235 231 105 231 235z" fill="#e5f2f7"/><path d="m28909 18040c0 130-103 234-231 234s-231-104-231-234 103-235 231-235 231 105 231 235z" fill="none" stroke="#b2b1b1" stroke-width="36"/></g><g class="com.sun.star.drawing.OpenBezierShape" transform="matrix(.01 0 0 .01 -423.97 -26.222)"><g fill="none"><rect class="BoundingBox" x="28509" y="17836" width="185" height="153"/><path d="m28672 17857s-107 4-142 110" stroke="#fff" stroke-linecap="round" stroke-width="41"/></g></g><g class="com.sun.star.drawing.OpenBezierShape" transform="matrix(.01 0 0 .01 -423.97 -26.222)"><g fill="none"><rect class="BoundingBox" x="28480" y="17997" width="56" height="118"/><path d="m28505 18018s-14 40 9 75" stroke="#fff" stroke-linecap="round" stroke-width="41"/></g></g><g class="com.sun.star.drawing.ClosedBezierShape" transform="matrix(.01 0 0 .01 -423.97 -26.222)"><rect class="BoundingBox" x="28467" y="18482" width="250" height="262" fill="none"/><path d="m28703 18613c0 65-49 117-111 117-61 0-112-52-112-117s51-118 112-118c62 0 111 53 111 118z" fill="#e5f2f7"/><path d="m28703 18613c0 65-49 117-111 117-61 0-112-52-112-117s51-118 112-118c62 0 111 53 111 118z" fill="none" stroke="#b2b1b1" stroke-width="25"/></g><g class="com.sun.star.drawing.OpenBezierShape" transform="matrix(.01 0 0 .01 -423.97 -26.222)"><g fill="none"><rect class="BoundingBox" x="28588" y="18529" width="93" height="102"/><path d="m28601 18542s78 13 65 75" stroke="#fff" stroke-linecap="round" stroke-width="24"/></g></g><g class="com.sun.star.drawing.ClosedBezierShape" transform="matrix(.01 0 0 .01 -264.8 109.47)"><rect class="BoundingBox" x="28894" y="16693" width="736" height="2253" fill="none"/><path d="m29459 16693s22 124-27 146c0 0-105 7-136 142 0 0-27 106 42 155l-19 68c-285 975-265 1035-265 1035-13 241-160 689-160 689l49 17c112-441 233-660 233-660 75-79 303-1034 303-1034l20-68c69 13 120-108 120-108 35-89-36-191-36-191-23-40 43-143 43-143z" fill="#c4ecfb"/></g><g class="com.sun.star.drawing.OpenBezierShape" transform="matrix(.01 0 0 .01 -264.8 109.47)"><g fill="none"><rect class="BoundingBox" x="28875" y="16674" width="774" height="2291"/><path d="m29459 16693s22 124-27 146c0 0-105 7-136 142 0 0-27 106 42 155l-19 68c-285 975-265 1035-265 1035-13 241-160 689-160 689l49 17c112-441 233-660 233-660 75-79 303-1034 303-1034l20-68c69 13 120-108 120-108 35-89-36-191-36-191-23-40 43-143 43-143" stroke="#b2b1b1" stroke-linecap="round" stroke-linejoin="round" stroke-width="37"/></g></g><g class="com.sun.star.drawing.OpenBezierShape" transform="matrix(.01 0 0 .01 -264.8 109.47)"><g fill="none"><rect class="BoundingBox" x="29163" y="18059" width="112" height="56"/><path d="m29255 18093c-1 5-33-2-73-15" stroke="#b2b1b1" stroke-linecap="round" stroke-width="37"/></g></g><g class="com.sun.star.drawing.OpenBezierShape" transform="matrix(.01 0 0 .01 -264.8 109.47)"><g fill="none"><rect class="BoundingBox" x="29349" y="17380" width="106" height="54"/><path d="m29435 17412c-1 5-32-1-67-13" stroke="#b2b1b1" stroke-linecap="round" stroke-width="37"/></g></g><g class="com.sun.star.drawing.OpenBezierShape" transform="matrix(.01 0 0 .01 -264.8 109.47)"><g fill="none"><rect class="BoundingBox" x="29339" y="17495" width="88" height="54"/><path d="m29407 17529s-23-6-49-15" stroke="#b2b1b1" stroke-linecap="round" stroke-width="37"/></g></g><g class="com.sun.star.drawing.PolyLineShape" transform="matrix(.01 0 0 .01 -264.8 109.47)"><rect class="BoundingBox" x="29372" y="17576" width="39" height="39" fill="none"/></g><g class="com.sun.star.drawing.OpenBezierShape" transform="matrix(.01 0 0 .01 -264.8 109.47)"><g fill="none"><rect class="BoundingBox" x="29306" y="17611" width="93" height="49"/><path d="m29379 17639c-1 3-25 0-54-9" stroke="#b2b1b1" stroke-linecap="round" stroke-width="37"/></g></g><g class="com.sun.star.drawing.OpenBezierShape" transform="matrix(.01 0 0 .01 -264.8 109.47)"><g fill="none"><rect class="BoundingBox" x="29277" y="17732" width="88" height="46"/><path d="m29345 17754c-1 7-23 5-49-3" stroke="#b2b1b1" stroke-linecap="round" stroke-width="37"/></g></g><g class="com.sun.star.drawing.OpenBezierShape" transform="matrix(.01 0 0 .01 -264.8 109.47)"><g fill="none"><rect class="BoundingBox" x="29249" y="17849" width="85" height="45"/><path d="m29314 17870c-1 6-22 5-46-2" stroke="#b2b1b1" stroke-linecap="round" stroke-width="37"/></g></g><g class="com.sun.star.drawing.OpenBezierShape" transform="matrix(.01 0 0 .01 -264.8 109.47)"><g fill="none"><rect class="BoundingBox" x="29221" y="17950" width="83" height="48"/><path d="m29284 17976c-1 4-20 1-44-7" stroke="#b2b1b1" stroke-linecap="round" stroke-width="37"/></g></g><g class="com.sun.star.drawing.ClosedBezierShape" transform="matrix(.01 0 0 .01 -264.8 109.47)"><rect class="BoundingBox" x="29428" y="16046" width="419" height="739" fill="none"/><path d="m29453 16725c-25 8 31-93 28-146 0 0-35-206-32-267 0 0-12-154 103-222 0 0 152-81 241 46 28 41 65 152-14 268 0 0-111 174-122 223-2 4-40 124 14 138 0 0-256-27-218-40z" fill="#f792ad"/><path d="m29453 16725c-25 8 31-93 28-146 0 0-35-206-32-267 0 0-12-154 103-222 0 0 152-81 241 46 28 41 65 152-14 268 0 0-111 174-122 223-2 4-40 124 14 138 0 0-256-27-218-40z" fill="none" stroke="#b2b1b1" stroke-width="37"/></g><g class="com.sun.star.drawing.ClosedBezierShape" transform="matrix(.01 0 0 .01 -264.8 109.47)"><rect class="BoundingBox" x="29341" y="16697" width="360" height="166" fill="none"/><path d="m29647 16741s184 179-135 101c0 0-336-90-63-145z" fill="#f792ad"/></g><g class="com.sun.star.drawing.OpenBezierShape" transform="matrix(.01 0 0 .01 -264.8 109.47)"><g fill="none"><rect class="BoundingBox" x="29323" y="16678" width="397" height="204"/><path d="m29647 16741s184 179-135 101c0 0-336-90-63-145" stroke="#b2b1b1" stroke-linecap="round" stroke-linejoin="round" stroke-width="37"/></g></g><g class="com.sun.star.drawing.ClosedBezierShape" transform="matrix(.01 0 0 .01 -264.8 109.47)"><rect class="BoundingBox" x="27506" y="17117" width="931" height="916" fill="none"/><path d="m28417 17574c0 243-200 440-447 440-246 0-446-197-446-440 0-242 200-439 446-439 247 0 447 197 447 439z" fill="#e5f2f7"/><path d="m28417 17574c0 243-200 440-447 440-246 0-446-197-446-440 0-242 200-439 446-439 247 0 447 197 447 439z" fill="none" stroke="#b2b1b1" stroke-width="36"/></g><g class="com.sun.star.drawing.OpenBezierShape" transform="matrix(.01 0 0 .01 -264.8 109.47)"><g fill="none"><rect class="BoundingBox" x="28045" y="17240" width="284" height="510"/><path d="m28066 17261s348 96 207 467" stroke="#fff" stroke-linecap="round" stroke-width="41"/></g></g><g class="com.sun.star.drawing.OpenBezierShape" transform="matrix(.01 0 0 .01 -264.8 109.47)"><g fill="none"><rect class="BoundingBox" x="28122" y="17780" width="143" height="144"/><path d="m28243 17801s-26 92-100 101" stroke="#fff" stroke-linecap="round" stroke-width="41"/></g></g><g class="com.sun.star.drawing.ClosedBezierShape" transform="matrix(.01 0 0 .01 -264.8 109.47)"><rect class="BoundingBox" x="28429" y="17787" width="499" height="506" fill="none"/><path d="m28909 18040c0 130-103 234-231 234s-231-104-231-234 103-235 231-235 231 105 231 235z" fill="#e5f2f7"/><path d="m28909 18040c0 130-103 234-231 234s-231-104-231-234 103-235 231-235 231 105 231 235z" fill="none" stroke="#b2b1b1" stroke-width="36"/></g><g class="com.sun.star.drawing.OpenBezierShape" transform="matrix(.01 0 0 .01 -264.8 109.47)"><g fill="none"><rect class="BoundingBox" x="28509" y="17836" width="185" height="153"/><path d="m28672 17857s-107 4-142 110" stroke="#fff" stroke-linecap="round" stroke-width="41"/></g></g><g class="com.sun.star.drawing.OpenBezierShape" transform="matrix(.01 0 0 .01 -264.8 109.47)"><g fill="none"><rect class="BoundingBox" x="28480" y="17997" width="56" height="118"/><path d="m28505 18018s-14 40 9 75" stroke="#fff" stroke-linecap="round" stroke-width="41"/></g></g><g class="com.sun.star.drawing.ClosedBezierShape" transform="matrix(.01 0 0 .01 -264.8 109.47)"><rect class="BoundingBox" x="28467" y="18482" width="250" height="262" fill="none"/><path d="m28703 18613c0 65-49 117-111 117-61 0-112-52-112-117s51-118 112-118c62 0 111 53 111 118z" fill="#e5f2f7"/><path d="m28703 18613c0 65-49 117-111 117-61 0-112-52-112-117s51-118 112-118c62 0 111 53 111 118z" fill="none" stroke="#b2b1b1" stroke-width="25"/></g><g class="com.sun.star.drawing.OpenBezierShape" transform="matrix(.01 0 0 .01 -264.8 109.47)"><g fill="none"><rect class="BoundingBox" x="28588" y="18529" width="93" height="102"/><path d="m28601 18542s78 13 65 75" stroke="#fff" stroke-linecap="round" stroke-width="24"/></g></g></g></svg>
