<?xml version="1.0" encoding="UTF-8"?>
<svg width="25.12mm" height="34.93mm" version="1.1" viewBox="0 0 25.12 34.93" xmlns="http://www.w3.org/2000/svg"><g transform="translate(-319.38 -244.63)"><g class="com.sun.star.drawing.PolyPolygonShape" transform="matrix(.01 0 0 .01 -50.566 77.996)"><rect class="BoundingBox" x="37940" y="16663" width="1028" height="832" fill="none"/><path d="m38858 17470-894-114 83-669 895 114z" fill="#c6c5c5"/><path d="m38858 17470-894-114 83-669 895 114z" fill="none" stroke="#b2b1b1" stroke-linecap="round" stroke-linejoin="round" stroke-width="48"/></g><g class="com.sun.star.drawing.PolyPolygonShape" transform="matrix(.01 0 0 .01 -50.566 77.996)"><rect class="BoundingBox" x="37578" y="18989" width="519" height="759" fill="none"/><path d="m37989 19723-387-49 84-661 386 49z" fill="#c6c5c5"/><path d="m37989 19723-387-49 84-661 386 49z" fill="none" stroke="#b2b1b1" stroke-linecap="round" stroke-linejoin="round" stroke-width="48"/></g><g class="com.sun.star.drawing.PolyPolygonShape" transform="matrix(.01 0 0 .01 -50.566 77.996)"><rect class="BoundingBox" x="38201" y="19045" width="505" height="781" fill="none"/><path d="m38595 19801-369-47 85-685 370 47z" fill="#c6c5c5"/><path d="m38595 19801-369-47 85-685 370 47z" fill="none" stroke="#b2b1b1" stroke-linecap="round" stroke-linejoin="round" stroke-width="48"/></g><g class="com.sun.star.drawing.PolyPolygonShape" transform="matrix(.01 0 0 .01 -50.566 77.996)"><rect class="BoundingBox" x="37435" y="19640" width="672" height="436" fill="none"/><path d="m38043 20051-584-75 39-312 584 75z" fill="#c6c5c5"/><path d="m38043 20051-584-75 39-312 584 75z" fill="none" stroke="#b2b1b1" stroke-linecap="round" stroke-linejoin="round" stroke-width="48"/></g><g class="com.sun.star.drawing.PolyPolygonShape" transform="matrix(.01 0 0 .01 -50.566 77.996)"><rect class="BoundingBox" x="38105" y="19721" width="672" height="435" fill="none"/><path d="m38713 20131-584-74 39-312 584 74z" fill="#c6c5c5"/><path d="m38713 20131-584-74 39-312 584 74z" fill="none" stroke="#b2b1b1" stroke-linecap="round" stroke-linejoin="round" stroke-width="48"/></g><g class="com.sun.star.drawing.ClosedBezierShape" transform="matrix(.01 0 0 .01 -50.566 77.996)"><rect class="BoundingBox" x="38140" y="16841" width="188" height="194" fill="none"/><path d="m38301 16946c-4 38-39 65-76 61-37-5-63-40-58-78 4-38 38-66 75-62 38 5 64 41 59 79z" fill="#fff870"/><path d="m38301 16946c-4 38-39 65-76 61-37-5-63-40-58-78 4-38 38-66 75-62 38 5 64 41 59 79z" fill="none" stroke="#fff64f" stroke-linecap="round" stroke-linejoin="round" stroke-width="51"/></g><g class="com.sun.star.drawing.ClosedBezierShape" transform="matrix(.01 0 0 .01 -50.566 77.996)"><rect class="BoundingBox" x="38564" y="16897" width="189" height="194" fill="none"/><path d="m38726 17001c-5 39-39 66-77 62-37-5-63-41-58-79s38-65 75-61c39 5 65 40 60 78z" fill="#fff870"/><path d="m38726 17001c-5 39-39 66-77 62-37-5-63-41-58-79s38-65 75-61c39 5 65 40 60 78z" fill="none" stroke="#fff64f" stroke-linecap="round" stroke-linejoin="round" stroke-width="51"/></g><g class="com.sun.star.drawing.PolyPolygonShape" transform="matrix(.01 0 0 .01 -50.566 77.996)"><rect class="BoundingBox" x="38237" y="17154" width="369" height="176" fill="none"/><path d="m38572 17308-314-40 12-93 314 40z" fill="#f14b64"/><path d="m38572 17308-314-40 12-93 314 40z" fill="none" stroke="#f14b64" stroke-width="36"/></g><g class="com.sun.star.drawing.PolyPolygonShape" transform="matrix(.01 0 0 .01 -50.566 77.996)"><rect class="BoundingBox" x="37523" y="17302" width="1577" height="1877" fill="none"/><path d="m38866 19154-1147-146-172-22 208-1660 1320 169z" fill="#c6c5c5"/><path d="m38866 19154-1147-146-172-22 208-1660 1320 169z" fill="none" stroke="#b2b1b1" stroke-linecap="round" stroke-linejoin="round" stroke-width="48"/></g><g class="com.sun.star.drawing.PolyPolygonShape" transform="matrix(.01 0 0 .01 -50.566 77.996)"><rect class="BoundingBox" x="37656" y="19237" width="389" height="53" fill="none"/></g><g class="com.sun.star.drawing.LineShape" transform="matrix(.01 0 0 .01 -50.566 77.996)"><g fill="none"><rect class="BoundingBox" x="37632" y="19213" width="437" height="101"/><path d="m37656 19237 388 52" stroke="#b2b1b1" stroke-linecap="round" stroke-linejoin="round" stroke-width="48"/></g></g><g class="com.sun.star.drawing.PolyPolygonShape" transform="matrix(.01 0 0 .01 -50.566 77.996)"><rect class="BoundingBox" x="37642" y="19354" width="388" height="51" fill="none"/></g><g class="com.sun.star.drawing.LineShape" transform="matrix(.01 0 0 .01 -50.566 77.996)"><g fill="none"><rect class="BoundingBox" x="37618" y="19330" width="436" height="99"/><path d="m37642 19354 387 50" stroke="#b2b1b1" stroke-linecap="round" stroke-linejoin="round" stroke-width="48"/></g></g><g class="com.sun.star.drawing.PolyPolygonShape" transform="matrix(.01 0 0 .01 -50.566 77.996)"><rect class="BoundingBox" x="38286" y="19318" width="359" height="47" fill="none"/></g><g class="com.sun.star.drawing.LineShape" transform="matrix(.01 0 0 .01 -50.566 77.996)"><g fill="none"><rect class="BoundingBox" x="38262" y="19294" width="407" height="95"/><path d="m38286 19318 358 46" stroke="#b2b1b1" stroke-linecap="round" stroke-linejoin="round" stroke-width="48"/></g></g><g class="com.sun.star.drawing.PolyPolygonShape" transform="matrix(.01 0 0 .01 -50.566 77.996)"><rect class="BoundingBox" x="38271" y="19435" width="360" height="45" fill="none"/></g><g class="com.sun.star.drawing.LineShape" transform="matrix(.01 0 0 .01 -50.566 77.996)"><g fill="none"><rect class="BoundingBox" x="38247" y="19411" width="408" height="93"/><path d="m38271 19435 359 44" stroke="#b2b1b1" stroke-linecap="round" stroke-linejoin="round" stroke-width="48"/></g></g><g class="com.sun.star.drawing.PolyPolygonShape" transform="matrix(.01 0 0 .01 -50.566 77.996)"><rect class="BoundingBox" x="37644" y="17473" width="7" height="278" fill="none"/></g><g class="com.sun.star.drawing.LineShape" transform="matrix(.01 0 0 .01 -50.566 77.996)"><g fill="none"><rect class="BoundingBox" x="37620" y="17449" width="55" height="326"/><path d="m37644 17473 6 277" stroke="#b2b1b1" stroke-linecap="round" stroke-linejoin="round" stroke-width="48"/></g></g><g class="com.sun.star.drawing.PolyPolygonShape" transform="matrix(.01 0 0 .01 -50.566 77.996)"><rect class="BoundingBox" x="37516" y="17521" width="67" height="269" fill="none"/></g><g class="com.sun.star.drawing.LineShape" transform="matrix(.01 0 0 .01 -50.566 77.996)"><g fill="none"><rect class="BoundingBox" x="37492" y="17497" width="115" height="317"/><path d="m37516 17521 66 268" stroke="#b2b1b1" stroke-linecap="round" stroke-linejoin="round" stroke-width="48"/></g></g><g class="com.sun.star.drawing.PolyPolygonShape" transform="matrix(.01 0 0 .01 -50.566 77.996)"><rect class="BoundingBox" x="37395" y="17623" width="143" height="214" fill="none"/></g><g class="com.sun.star.drawing.LineShape" transform="matrix(.01 0 0 .01 -50.566 77.996)"><g fill="none"><rect class="BoundingBox" x="37371" y="17599" width="191" height="262"/><path d="m37395 17623 142 213" stroke="#b2b1b1" stroke-linecap="round" stroke-linejoin="round" stroke-width="48"/></g></g><g class="com.sun.star.drawing.ClosedBezierShape" transform="matrix(.01 0 0 .01 -50.566 77.996)"><rect class="BoundingBox" x="37125" y="17444" width="638" height="1025" fill="none"/><path d="m37738 17472s-504-101-588 918l219 54s31-692 336-705z" fill="#c6c5c5"/><path d="m37738 17472s-504-101-588 918l219 54s31-692 336-705z" fill="none" stroke="#b2b1b1" stroke-linecap="round" stroke-linejoin="round" stroke-width="48"/></g><g class="com.sun.star.drawing.ClosedBezierShape" transform="matrix(.01 0 0 .01 -50.566 77.996)"><rect class="BoundingBox" x="37021" y="18368" width="404" height="349" fill="none"/><path d="m37034 18716s-79-290 159-347c0 0 273-35 225 314l-118-5s38-162-68-173c0 0-96 11-72 192l-137 12z" fill="#827f80"/></g><g class="com.sun.star.drawing.OpenBezierShape" transform="matrix(.01 0 0 .01 -50.566 77.996)"><g fill="none"><rect class="BoundingBox" x="36995" y="18342" width="455" height="401"/><path d="m37034 18716s-79-290 159-347c0 0 273-35 225 314l-118-5s38-162-68-173c0 0-96 11-72 192l-137 12" stroke="#827f80" stroke-linecap="round" stroke-linejoin="round" stroke-width="51"/></g></g><g class="com.sun.star.drawing.PolyPolygonShape" transform="matrix(.01 0 0 .01 -50.566 77.996)"><rect class="BoundingBox" x="37308" y="17751" width="198" height="134" fill="none"/></g><g class="com.sun.star.drawing.LineShape" transform="matrix(.01 0 0 .01 -50.566 77.996)"><g fill="none"><rect class="BoundingBox" x="37284" y="17727" width="246" height="182"/><path d="m37308 17751 197 133" stroke="#b2b1b1" stroke-linecap="round" stroke-linejoin="round" stroke-width="48"/></g></g><g class="com.sun.star.drawing.PolyPolygonShape" transform="matrix(.01 0 0 .01 -50.566 77.996)"><rect class="BoundingBox" x="37268" y="17835" width="212" height="100" fill="none"/></g><g class="com.sun.star.drawing.LineShape" transform="matrix(.01 0 0 .01 -50.566 77.996)"><g fill="none"><rect class="BoundingBox" x="37244" y="17811" width="260" height="148"/><path d="m37268 17835 211 99" stroke="#b2b1b1" stroke-linecap="round" stroke-linejoin="round" stroke-width="48"/></g></g><g class="com.sun.star.drawing.PolyPolygonShape" transform="matrix(.01 0 0 .01 -50.566 77.996)"><rect class="BoundingBox" x="37235" y="17926" width="217" height="78" fill="none"/></g><g class="com.sun.star.drawing.LineShape" transform="matrix(.01 0 0 .01 -50.566 77.996)"><g fill="none"><rect class="BoundingBox" x="37211" y="17902" width="265" height="126"/><path d="m37235 17926 216 77" stroke="#b2b1b1" stroke-linecap="round" stroke-linejoin="round" stroke-width="48"/></g></g><g class="com.sun.star.drawing.PolyPolygonShape" transform="matrix(.01 0 0 .01 -50.566 77.996)"><rect class="BoundingBox" x="37210" y="18012" width="219" height="64" fill="none"/></g><g class="com.sun.star.drawing.LineShape" transform="matrix(.01 0 0 .01 -50.566 77.996)"><g fill="none"><rect class="BoundingBox" x="37186" y="17988" width="267" height="112"/><path d="m37210 18012 218 63" stroke="#b2b1b1" stroke-linecap="round" stroke-linejoin="round" stroke-width="48"/></g></g><g class="com.sun.star.drawing.PolyPolygonShape" transform="matrix(.01 0 0 .01 -50.566 77.996)"><rect class="BoundingBox" x="37190" y="18097" width="222" height="48" fill="none"/></g><g class="com.sun.star.drawing.LineShape" transform="matrix(.01 0 0 .01 -50.566 77.996)"><g fill="none"><rect class="BoundingBox" x="37166" y="18073" width="270" height="96"/><path d="m37190 18097 221 47" stroke="#b2b1b1" stroke-linecap="round" stroke-linejoin="round" stroke-width="48"/></g></g><g class="com.sun.star.drawing.PolyPolygonShape" transform="matrix(.01 0 0 .01 -50.566 77.996)"><rect class="BoundingBox" x="37177" y="18171" width="222" height="36" fill="none"/></g><g class="com.sun.star.drawing.LineShape" transform="matrix(.01 0 0 .01 -50.566 77.996)"><g fill="none"><rect class="BoundingBox" x="37153" y="18147" width="270" height="84"/><path d="m37177 18171 221 35" stroke="#b2b1b1" stroke-linecap="round" stroke-linejoin="round" stroke-width="48"/></g></g><g class="com.sun.star.drawing.PolyPolygonShape" transform="matrix(.01 0 0 .01 -50.566 77.996)"><rect class="BoundingBox" x="37165" y="18252" width="221" height="35" fill="none"/></g><g class="com.sun.star.drawing.LineShape" transform="matrix(.01 0 0 .01 -50.566 77.996)"><g fill="none"><rect class="BoundingBox" x="37141" y="18228" width="269" height="83"/><path d="m37165 18252 220 34" stroke="#b2b1b1" stroke-linecap="round" stroke-linejoin="round" stroke-width="48"/></g></g><g class="com.sun.star.drawing.PolyPolygonShape" transform="matrix(.01 0 0 .01 -50.566 77.996)"><rect class="BoundingBox" x="37155" y="18332" width="222" height="30" fill="none"/></g><g class="com.sun.star.drawing.LineShape" transform="matrix(.01 0 0 .01 -50.566 77.996)"><g fill="none"><rect class="BoundingBox" x="37129" y="18306" width="274" height="82"/><path d="m37155 18332 221 29" stroke="#b2b1b1" stroke-linecap="round" stroke-linejoin="round" stroke-width="51"/></g></g><g class="com.sun.star.drawing.PolyPolygonShape" transform="matrix(.01 0 0 .01 -50.566 77.996)"><rect class="BoundingBox" x="37354" y="17676" width="184" height="161" fill="none"/></g><g class="com.sun.star.drawing.LineShape" transform="matrix(.01 0 0 .01 -50.566 77.996)"><g fill="none"><rect class="BoundingBox" x="37330" y="17652" width="232" height="209"/><path d="m37354 17676 183 160" stroke="#b2b1b1" stroke-linecap="round" stroke-linejoin="round" stroke-width="48"/></g></g><g class="com.sun.star.drawing.PolyPolygonShape" transform="matrix(.01 0 0 .01 -50.566 77.996)"><rect class="BoundingBox" x="37426" y="17589" width="156" height="201" fill="none"/></g><g class="com.sun.star.drawing.LineShape" transform="matrix(.01 0 0 .01 -50.566 77.996)"><g fill="none"><rect class="BoundingBox" x="37402" y="17565" width="204" height="249"/><path d="m37426 17589 155 200" stroke="#b2b1b1" stroke-linecap="round" stroke-linejoin="round" stroke-width="48"/></g></g><g class="com.sun.star.drawing.PolyPolygonShape" transform="matrix(.01 0 0 .01 -50.566 77.996)"><rect class="BoundingBox" x="37516" y="17521" width="108" height="242" fill="none"/></g><g class="com.sun.star.drawing.LineShape" transform="matrix(.01 0 0 .01 -50.566 77.996)"><g fill="none"><rect class="BoundingBox" x="37492" y="17497" width="156" height="290"/><path d="m37516 17521 107 241" stroke="#b2b1b1" stroke-linecap="round" stroke-linejoin="round" stroke-width="48"/></g></g><g class="com.sun.star.drawing.PolyPolygonShape" transform="matrix(.01 0 0 .01 -50.566 77.996)"><rect class="BoundingBox" x="37606" y="17482" width="67" height="263" fill="none"/></g><g class="com.sun.star.drawing.LineShape" transform="matrix(.01 0 0 .01 -50.566 77.996)"><g fill="none"><rect class="BoundingBox" x="37582" y="17458" width="115" height="311"/><path d="m37606 17482 66 262" stroke="#b2b1b1" stroke-linecap="round" stroke-linejoin="round" stroke-width="48"/></g></g><g class="com.sun.star.drawing.PolyPolygonShape" transform="matrix(.01 0 0 .01 -50.566 77.996)"><rect class="BoundingBox" x="39072" y="17648" width="75" height="268" fill="none"/></g><g class="com.sun.star.drawing.LineShape" transform="matrix(.01 0 0 .01 -50.566 77.996)"><g fill="none"><rect class="BoundingBox" x="39046" y="17622" width="127" height="320"/><path d="m39146 17648-74 267" stroke="#b2b1b1" stroke-linecap="round" stroke-linejoin="round" stroke-width="51"/></g></g><g class="com.sun.star.drawing.PolyPolygonShape" transform="matrix(.01 0 0 .01 -50.566 77.996)"><rect class="BoundingBox" x="39128" y="17726" width="131" height="245" fill="none"/></g><g class="com.sun.star.drawing.LineShape" transform="matrix(.01 0 0 .01 -50.566 77.996)"><g fill="none"><rect class="BoundingBox" x="39104" y="17702" width="179" height="293"/><path d="m39258 17726-130 244" stroke="#b2b1b1" stroke-linecap="round" stroke-linejoin="round" stroke-width="48"/></g></g><g class="com.sun.star.drawing.PolyPolygonShape" transform="matrix(.01 0 0 .01 -50.566 77.996)"><rect class="BoundingBox" x="39159" y="17856" width="192" height="172" fill="none"/></g><g class="com.sun.star.drawing.LineShape" transform="matrix(.01 0 0 .01 -50.566 77.996)"><g fill="none"><rect class="BoundingBox" x="39135" y="17832" width="240" height="220"/><path d="m39350 17856-191 171" stroke="#b2b1b1" stroke-linecap="round" stroke-linejoin="round" stroke-width="48"/></g></g><g class="com.sun.star.drawing.ClosedBezierShape" transform="matrix(.01 0 0 .01 -50.566 77.996)"><rect class="BoundingBox" x="38997" y="17599" width="462" height="1086" fill="none"/><path d="m39055 17623s515 28 343 1036l-224-3s140-677-153-766z" fill="#c6c5c5"/><path d="m39055 17623s515 28 343 1036l-224-3s140-677-153-766z" fill="none" stroke="#b2b1b1" stroke-linecap="round" stroke-linejoin="round" stroke-width="48"/></g><g class="com.sun.star.drawing.ClosedBezierShape" transform="matrix(.01 0 0 .01 -50.566 77.996)"><rect class="BoundingBox" x="39067" y="18616" width="414" height="391" fill="none"/><path d="m39431 19005s147-261-69-375c0 0-256-103-295 247l115 25s3-167 109-151c0 0 90 34 22 205z" fill="#827f80"/></g><g class="com.sun.star.drawing.OpenBezierShape" transform="matrix(.01 0 0 .01 -50.566 77.996)"><g fill="none"><rect class="BoundingBox" x="39041" y="18590" width="466" height="442"/><path d="m39431 19005s147-261-69-375c0 0-256-103-295 247l115 25s3-167 109-151c0 0 90 34 22 205z" stroke="#827f80" stroke-linecap="round" stroke-linejoin="round" stroke-width="51"/></g></g><g class="com.sun.star.drawing.PolyPolygonShape" transform="matrix(.01 0 0 .01 -50.566 77.996)"><rect class="BoundingBox" x="39179" y="18001" width="224" height="81" fill="none"/></g><g class="com.sun.star.drawing.LineShape" transform="matrix(.01 0 0 .01 -50.566 77.996)"><g fill="none"><rect class="BoundingBox" x="39155" y="17977" width="272" height="129"/><path d="m39402 18001-223 80" stroke="#b2b1b1" stroke-linecap="round" stroke-linejoin="round" stroke-width="48"/></g></g><g class="com.sun.star.drawing.PolyPolygonShape" transform="matrix(.01 0 0 .01 -50.566 77.996)"><rect class="BoundingBox" x="39192" y="18093" width="229" height="44" fill="none"/></g><g class="com.sun.star.drawing.LineShape" transform="matrix(.01 0 0 .01 -50.566 77.996)"><g fill="none"><rect class="BoundingBox" x="39168" y="18069" width="277" height="92"/><path d="m39420 18093-228 43" stroke="#b2b1b1" stroke-linecap="round" stroke-linejoin="round" stroke-width="48"/></g></g><g class="com.sun.star.drawing.PolyPolygonShape" transform="matrix(.01 0 0 .01 -50.566 77.996)"><rect class="BoundingBox" x="39202" y="18189" width="229" height="22" fill="none"/></g><g class="com.sun.star.drawing.LineShape" transform="matrix(.01 0 0 .01 -50.566 77.996)"><g fill="none"><rect class="BoundingBox" x="39178" y="18165" width="277" height="70"/><path d="m39430 18189-228 21" stroke="#b2b1b1" stroke-linecap="round" stroke-linejoin="round" stroke-width="48"/></g></g><g class="com.sun.star.drawing.PolyPolygonShape" transform="matrix(.01 0 0 .01 -50.566 77.996)"><rect class="BoundingBox" x="39206" y="18279" width="228" height="7" fill="none"/></g><g class="com.sun.star.drawing.LineShape" transform="matrix(.01 0 0 .01 -50.566 77.996)"><g fill="none"><rect class="BoundingBox" x="39182" y="18255" width="276" height="55"/><path d="m39433 18279-227 6" stroke="#b2b1b1" stroke-linecap="round" stroke-linejoin="round" stroke-width="48"/></g></g><g class="com.sun.star.drawing.PolyPolygonShape" transform="matrix(.01 0 0 .01 -50.566 77.996)"><rect class="BoundingBox" x="39206" y="18355" width="226" height="13" fill="none"/></g><g class="com.sun.star.drawing.LineShape" transform="matrix(.01 0 0 .01 -50.566 77.996)"><g fill="none"><rect class="BoundingBox" x="39182" y="18331" width="274" height="61"/><path d="m39431 18367-225-12" stroke="#b2b1b1" stroke-linecap="round" stroke-linejoin="round" stroke-width="48"/></g></g><g class="com.sun.star.drawing.PolyPolygonShape" transform="matrix(.01 0 0 .01 -50.566 77.996)"><rect class="BoundingBox" x="39203" y="18419" width="224" height="24" fill="none"/></g><g class="com.sun.star.drawing.LineShape" transform="matrix(.01 0 0 .01 -50.566 77.996)"><g fill="none"><rect class="BoundingBox" x="39179" y="18395" width="272" height="72"/><path d="m39426 18442-223-23" stroke="#b2b1b1" stroke-linecap="round" stroke-linejoin="round" stroke-width="48"/></g></g><g class="com.sun.star.drawing.PolyPolygonShape" transform="matrix(.01 0 0 .01 -50.566 77.996)"><rect class="BoundingBox" x="39196" y="18500" width="223" height="24" fill="none"/></g><g class="com.sun.star.drawing.LineShape" transform="matrix(.01 0 0 .01 -50.566 77.996)"><g fill="none"><rect class="BoundingBox" x="39172" y="18476" width="271" height="72"/><path d="m39418 18523-222-23" stroke="#b2b1b1" stroke-linecap="round" stroke-linejoin="round" stroke-width="48"/></g></g><g class="com.sun.star.drawing.PolyPolygonShape" transform="matrix(.01 0 0 .01 -50.566 77.996)"><rect class="BoundingBox" x="39186" y="18575" width="222" height="30" fill="none"/></g><g class="com.sun.star.drawing.LineShape" transform="matrix(.01 0 0 .01 -50.566 77.996)"><g fill="none"><rect class="BoundingBox" x="39160" y="18549" width="274" height="82"/><path d="m39407 18604-221-29" stroke="#b2b1b1" stroke-linecap="round" stroke-linejoin="round" stroke-width="51"/></g></g><g class="com.sun.star.drawing.PolyPolygonShape" transform="matrix(.01 0 0 .01 -50.566 77.996)"><rect class="BoundingBox" x="39159" y="17918" width="219" height="110" fill="none"/></g><g class="com.sun.star.drawing.LineShape" transform="matrix(.01 0 0 .01 -50.566 77.996)"><g fill="none"><rect class="BoundingBox" x="39135" y="17894" width="267" height="158"/><path d="m39377 17918-218 109" stroke="#b2b1b1" stroke-linecap="round" stroke-linejoin="round" stroke-width="48"/></g></g><g class="com.sun.star.drawing.PolyPolygonShape" transform="matrix(.01 0 0 .01 -50.566 77.996)"><rect class="BoundingBox" x="39128" y="17815" width="200" height="156" fill="none"/></g><g class="com.sun.star.drawing.LineShape" transform="matrix(.01 0 0 .01 -50.566 77.996)"><g fill="none"><rect class="BoundingBox" x="39104" y="17791" width="248" height="204"/><path d="m39327 17815-199 155" stroke="#b2b1b1" stroke-linecap="round" stroke-linejoin="round" stroke-width="48"/></g></g><g class="com.sun.star.drawing.PolyPolygonShape" transform="matrix(.01 0 0 .01 -50.566 77.996)"><rect class="BoundingBox" x="39095" y="17726" width="164" height="208" fill="none"/></g><g class="com.sun.star.drawing.LineShape" transform="matrix(.01 0 0 .01 -50.566 77.996)"><g fill="none"><rect class="BoundingBox" x="39071" y="17702" width="212" height="256"/><path d="m39258 17726-163 207" stroke="#b2b1b1" stroke-linecap="round" stroke-linejoin="round" stroke-width="48"/></g></g><g class="com.sun.star.drawing.PolyPolygonShape" transform="matrix(.01 0 0 .01 -50.566 77.996)"><rect class="BoundingBox" x="39052" y="17666" width="129" height="238" fill="none"/></g><g class="com.sun.star.drawing.LineShape" transform="matrix(.01 0 0 .01 -50.566 77.996)"><g fill="none"><rect class="BoundingBox" x="39028" y="17642" width="177" height="286"/><path d="m39180 17666-128 237" stroke="#b2b1b1" stroke-linecap="round" stroke-linejoin="round" stroke-width="48"/></g></g></g></svg>
