<?xml version="1.0" encoding="UTF-8"?>

<svg version="1.2" baseProfile="tiny" viewBox="0 0 21000 29700" preserveAspectRatio="xMidYMid" fill-rule="evenodd" stroke-width="28.222" stroke-linejoin="round" xmlns="http://www.w3.org/2000/svg" xmlns:ooo="http://xml.openoffice.org/svg/export" xmlns:xlink="http://www.w3.org/1999/xlink" xml:space="preserve">
 <defs class="ClipPathGroup">
  <clipPath id="presentation_clip_path" clipPathUnits="userSpaceOnUse">
   <rect x="0" y="0" width="21000" height="29700"/>
  </clipPath>
 </defs>
 <defs class="TextShapeIndex">
  <g ooo:slide="id1" ooo:id-list="id3 id4"/>
 </defs>
 <defs class="EmbeddedBulletChars">
  <g id="bullet-char-template(57356)" transform="scale(0.00048828125,-0.00048828125)">
   <path d="M 580,1141 L 1163,571 580,0 -4,571 580,1141 Z"/>
  </g>
  <g id="bullet-char-template(57354)" transform="scale(0.00048828125,-0.00048828125)">
   <path d="M 8,1128 L 1137,1128 1137,0 8,0 8,1128 Z"/>
  </g>
  <g id="bullet-char-template(10146)" transform="scale(0.00048828125,-0.00048828125)">
   <path d="M 174,0 L 602,739 174,1481 1456,739 174,0 Z M 1358,739 L 309,1346 659,739 1358,739 Z"/>
  </g>
  <g id="bullet-char-template(10132)" transform="scale(0.00048828125,-0.00048828125)">
   <path d="M 2015,739 L 1276,0 717,0 1260,543 174,543 174,936 1260,936 717,1481 1274,1481 2015,739 Z"/>
  </g>
  <g id="bullet-char-template(10007)" transform="scale(0.00048828125,-0.00048828125)">
   <path d="M 0,-2 C -7,14 -16,27 -25,37 L 356,567 C 262,823 215,952 215,954 215,979 228,992 255,992 264,992 276,990 289,987 310,991 331,999 354,1012 L 381,999 492,748 772,1049 836,1024 860,1049 C 881,1039 901,1025 922,1006 886,937 835,863 770,784 769,783 710,716 594,584 L 774,223 C 774,196 753,168 711,139 L 727,119 C 717,90 699,76 672,76 641,76 570,178 457,381 L 164,-76 C 142,-110 111,-127 72,-127 30,-127 9,-110 8,-76 1,-67 -2,-52 -2,-32 -2,-23 -1,-13 0,-2 Z"/>
  </g>
  <g id="bullet-char-template(10004)" transform="scale(0.00048828125,-0.00048828125)">
   <path d="M 285,-33 C 182,-33 111,30 74,156 52,228 41,333 41,471 41,549 55,616 82,672 116,743 169,778 240,778 293,778 328,747 346,684 L 369,508 C 377,444 397,411 428,410 L 1163,1116 C 1174,1127 1196,1133 1229,1133 1271,1133 1292,1118 1292,1087 L 1292,965 C 1292,929 1282,901 1262,881 L 442,47 C 390,-6 338,-33 285,-33 Z"/>
  </g>
  <g id="bullet-char-template(9679)" transform="scale(0.00048828125,-0.00048828125)">
   <path d="M 813,0 C 632,0 489,54 383,161 276,268 223,411 223,592 223,773 276,916 383,1023 489,1130 632,1184 813,1184 992,1184 1136,1130 1245,1023 1353,916 1407,772 1407,592 1407,412 1353,268 1245,161 1136,54 992,0 813,0 Z"/>
  </g>
  <g id="bullet-char-template(8226)" transform="scale(0.00048828125,-0.00048828125)">
   <path d="M 346,457 C 273,457 209,483 155,535 101,586 74,649 74,723 74,796 101,859 155,911 209,963 273,989 346,989 419,989 480,963 531,910 582,859 608,796 608,723 608,648 583,586 532,535 482,483 420,457 346,457 Z"/>
  </g>
  <g id="bullet-char-template(8211)" transform="scale(0.00048828125,-0.00048828125)">
   <path d="M -4,459 L 1135,459 1135,606 -4,606 -4,459 Z"/>
  </g>
 </defs>
 <defs class="TextEmbeddedBitmaps"/>
 <g>
  <g id="id2" class="Master_Slide">
   <g id="bg-id2" class="Background"/>
   <g id="bo-id2" class="BackgroundObjects"/>
  </g>
 </g>
 <g class="SlideGroup">
  <g>
   <g id="id1" class="Slide" clip-path="url(#presentation_clip_path)">
    <g class="Page">
     <g class="com.sun.star.drawing.ClosedBezierShape">
      <g id="id3">
       <path fill="rgb(255,255,255)" stroke="none" d="M 1000,1000 L 1000,1833 1000,2515 1001,2515 C 1005,2567 1036,2624 1081,2650 1129,2678 1192,2678 1240,2650 1381,2596 1522,2510 1675,2515 1917,2515 2116,2706 2129,2945 2129,2953 2129,2960 2129,2968 2129,3218 1926,3421 1675,3421 1519,3421 1387,3337 1240,3286 1192,3259 1129,3258 1081,3286 1036,3312 1005,3368 1001,3421 L 1000,3421 1000,3789 1000,4238 1000,5071 1833,5071 2515,5071 2650,5071 2650,5072 C 2702,5077 2759,5107 2785,5152 2813,5200 2813,5263 2785,5312 2734,5458 2650,5591 2650,5747 2650,5997 2853,6200 3103,6200 3111,6200 3118,6200 3126,6200 3365,6188 3556,5989 3556,5747 3561,5594 3475,5452 3421,5312 3393,5263 3393,5200 3421,5152 3447,5107 3503,5077 3556,5072 L 3556,5071 5072,5071 5072,4238 5072,3789 5072,3421 5073,3421 C 5078,3368 5108,3312 5153,3286 5201,3258 5264,3259 5313,3286 5459,3337 5592,3421 5747,3421 5998,3421 6201,3218 6201,2968 6201,2960 6201,2953 6201,2945 6189,2706 5990,2515 5747,2515 5594,2510 5453,2596 5313,2650 5264,2678 5201,2678 5153,2650 5108,2624 5078,2567 5073,2515 L 5072,2515 5072,1833 5072,1000 3556,1000 3556,1001 C 3503,1006 3447,1036 3421,1081 3393,1129 3393,1192 3421,1240 3475,1381 3561,1522 3556,1675 3556,1917 3365,2116 3126,2129 3118,2129 3111,2129 3103,2129 2853,2129 2650,1926 2650,1675 2650,1519 2734,1387 2785,1240 2813,1192 2813,1129 2785,1081 2759,1036 2702,1006 2650,1001 L 2650,1000 1000,1000 Z"/>
      </g>
     </g>
     <g class="com.sun.star.drawing.ClosedBezierShape">
      <g id="id4">
       <path fill="none" stroke="rgb(0,0,0)" stroke-width="14" stroke-linejoin="miter" d="M 1000,1000 L 1000,1833 1000,2515 1001,2515 C 1005,2567 1036,2624 1081,2650 1129,2678 1192,2678 1240,2650 1381,2596 1522,2510 1675,2515 1917,2515 2116,2706 2129,2945 2129,2953 2129,2960 2129,2968 2129,3218 1926,3421 1675,3421 1519,3421 1387,3337 1240,3286 1192,3259 1129,3258 1081,3286 1036,3312 1005,3368 1001,3421 L 1000,3421 1000,3789 1000,4238 1000,5071 1833,5071 2515,5071 2650,5071 2650,5072 C 2702,5077 2759,5107 2785,5152 2813,5200 2813,5263 2785,5312 2734,5458 2650,5591 2650,5747 2650,5997 2853,6200 3103,6200 3111,6200 3118,6200 3126,6200 3365,6188 3556,5989 3556,5747 3561,5594 3475,5452 3421,5312 3393,5263 3393,5200 3421,5152 3447,5107 3503,5077 3556,5072 L 3556,5071 5072,5071 5072,4238 5072,3789 5072,3421 5073,3421 C 5078,3368 5108,3312 5153,3286 5201,3258 5264,3259 5313,3286 5459,3337 5592,3421 5747,3421 5998,3421 6201,3218 6201,2968 6201,2960 6201,2953 6201,2945 6189,2706 5990,2515 5747,2515 5594,2510 5453,2596 5313,2650 5264,2678 5201,2678 5153,2650 5108,2624 5078,2567 5073,2515 L 5072,2515 5072,1833 5072,1000 3556,1000 3556,1001 C 3503,1006 3447,1036 3421,1081 3393,1129 3393,1192 3421,1240 3475,1381 3561,1522 3556,1675 3556,1917 3365,2116 3126,2129 3118,2129 3111,2129 3103,2129 2853,2129 2650,1926 2650,1675 2650,1519 2734,1387 2785,1240 2813,1192 2813,1129 2785,1081 2759,1036 2702,1006 2650,1001 L 2650,1000 1000,1000 Z"/>
      </g>
     </g>
    </g>
   </g>
  </g>
 </g>
</svg>